<?xml version="1.0" encoding="UTF-8" standalone="no"?>
<!-- Generator: Gravit.io -->
<svg xmlns="http://www.w3.org/2000/svg" xmlns:xlink="http://www.w3.org/1999/xlink" style="isolation:isolate" viewBox="210 262 358.2560000000001 70" width="358.2560000000001" height="70"><path d=" M 311.684 282.96000000000004 Q 315.068 282.96000000000004 316.958 284.418 Q 318.848 285.876 318.848 288.68399999999997 Q 318.848 290.77200000000005 317.678 291.942 Q 316.508 293.11199999999997 314.744 293.58000000000004 Q 315.752 293.76 316.616 294.21000000000004 Q 317.48 294.65999999999997 318.128 295.38 Q 318.776 296.1 319.154 297.09000000000003 Q 319.532 298.08000000000004 319.532 299.304 Q 319.532 300.70799999999997 318.92 301.87800000000004 Q 318.308 303.048 317.228 303.876 Q 316.148 304.70400000000006 314.672 305.172 Q 313.196 305.64 311.432 305.64 L 304.88 305.64 L 304.88 282.96000000000004 L 311.684 282.96000000000004 Z  M 308.192 292.428 L 310.892 292.428 Q 311.79200000000003 292.428 312.62 292.284 Q 313.448 292.14 314.078 291.744 Q 314.708 291.34799999999996 315.086 290.682 Q 315.464 290.01599999999996 315.464 288.93600000000004 Q 315.464 287.20799999999997 314.294 286.41600000000005 Q 313.124 285.624 311.18 285.624 L 308.192 285.624 L 308.192 292.428 Z  M 308.192 302.976 L 311.072 302.976 Q 312.08 302.976 312.98 302.778 Q 313.88 302.58000000000004 314.564 302.11199999999997 Q 315.248 301.644 315.662 300.87 Q 316.076 300.096 316.076 298.98 Q 316.076 297.86400000000003 315.59 297.126 Q 315.104 296.38800000000003 314.312 295.91999999999996 Q 313.52 295.452 312.512 295.254 Q 311.504 295.05600000000004 310.496 295.05600000000004 L 308.192 295.05600000000004 L 308.192 302.976 Z  M 323.96 290.23199999999997 Q 324.824 289.79999999999995 325.58 289.45799999999997 Q 326.336 289.116 327.092 288.9 Q 327.848 288.68399999999997 328.64 288.576 Q 329.432 288.46799999999996 330.368 288.46799999999996 Q 331.772 288.46799999999996 332.942 288.774 Q 334.112 289.08000000000004 334.95799999999997 289.79999999999995 Q 335.804 290.52 336.272 291.69000000000005 Q 336.74 292.86 336.74 294.624 L 336.74 305.64 L 334.112 305.64 L 333.716 303.76800000000003 L 333.644 303.76800000000003 Q 332.528 304.956 331.196 305.46000000000004 Q 329.86400000000003 305.96400000000006 328.244 305.96400000000006 Q 327.02 305.96400000000006 325.994 305.62199999999996 Q 324.968 305.28 324.212 304.65 Q 323.456 304.02 323.04200000000003 303.12 Q 322.628 302.22 322.628 301.10400000000004 Q 322.628 298.44000000000005 324.734 297.054 Q 326.84000000000003 295.668 330.296 295.668 L 333.536 295.668 L 333.536 294.22800000000007 Q 333.536 292.39200000000005 332.6 291.726 Q 331.664 291.06000000000006 330.08 291.06000000000006 Q 329.144 291.06000000000006 327.938 291.366 Q 326.73199999999997 291.672 325.184 292.53600000000006 L 323.96 290.23199999999997 Z  M 333.572 297.828 L 330.908 297.9 Q 328.208 297.972 327.074 298.85400000000004 Q 325.94 299.736 325.94 300.996 Q 325.94 301.75200000000007 326.192 302.274 Q 326.444 302.79600000000005 326.858 303.08400000000006 Q 327.272 303.37199999999996 327.83 303.49800000000005 Q 328.388 303.624 329 303.624 Q 330.188 303.624 331.412 303.06600000000003 Q 332.636 302.50800000000004 333.572 301.284 L 333.572 297.828 Z  M 344.552 305.64 L 341.384 305.64 L 341.384 288.72 L 343.868 288.72 L 344.336 291.06000000000006 Q 345.596 289.79999999999995 346.982 289.134 Q 348.368 288.46799999999996 350.168 288.46799999999996 Q 352.76 288.46799999999996 354.236 289.92600000000004 Q 355.712 291.384 355.712 293.976 L 355.712 305.64 L 352.544 305.64 L 352.544 294.44399999999996 Q 352.544 292.89599999999996 351.73400000000004 291.97800000000007 Q 350.924 291.06000000000006 349.26800000000003 291.06000000000006 Q 346.748 291.06000000000006 344.552 293.328 L 344.552 305.64 Z  M 371.84000000000003 304.41600000000005 Q 370.904 305.244 369.77 305.60400000000004 Q 368.636 305.96400000000006 367.196 305.96400000000006 Q 365.396 305.96400000000006 363.974 305.33400000000006 Q 362.552 304.70400000000006 361.58000000000004 303.57000000000005 Q 360.608 302.43600000000004 360.086 300.81600000000003 Q 359.564 299.196 359.564 297.18000000000006 Q 359.564 295.308 360.068 293.706 Q 360.572 292.10400000000004 361.562 290.952 Q 362.552 289.79999999999995 364.01 289.134 Q 365.468 288.46799999999996 367.34000000000003 288.46799999999996 Q 367.88 288.46799999999996 368.528 288.59400000000005 Q 369.17600000000004 288.72 369.80600000000004 288.972 Q 370.43600000000004 289.22400000000005 371.012 289.602 Q 371.588 289.98 372.02 290.448 L 372.38 288.72 L 375.00800000000004 288.72 L 375.00800000000004 313.91999999999996 L 371.84000000000003 313.91999999999996 L 371.84000000000003 304.41600000000005 Z  M 371.84000000000003 293.03999999999996 Q 371.192 292.14 370.166 291.51 Q 369.14 290.88 367.88 290.88 Q 366.836 290.88 365.918 291.222 Q 365 291.56399999999996 364.298 292.32000000000005 Q 363.596 293.076 363.182 294.246 Q 362.76800000000003 295.41600000000005 362.76800000000003 297.072 Q 362.76800000000003 300.27599999999995 364.118 301.89599999999996 Q 365.468 303.51599999999996 367.62800000000004 303.51599999999996 Q 368.96000000000004 303.51599999999996 370.04 302.994 Q 371.12 302.472 371.84000000000003 301.644 L 371.84000000000003 293.03999999999996 Z  M 391.244 288.72 L 394.41200000000003 288.72 L 394.41200000000003 305.64 L 391.928 305.64 L 391.49600000000004 303.51599999999996 L 391.35200000000003 303.51599999999996 Q 390.41600000000005 304.56000000000006 389.03000000000003 305.26200000000006 Q 387.644 305.96400000000006 385.808 305.96400000000006 Q 383.18 305.96400000000006 381.54200000000003 304.47 Q 379.904 302.976 379.904 299.952 L 379.904 288.72 L 383.072 288.72 L 383.072 299.55600000000004 Q 383.072 300.63599999999997 383.342 301.39200000000005 Q 383.612 302.148 384.062 302.59799999999996 Q 384.512 303.048 385.124 303.246 Q 385.736 303.44399999999996 386.456 303.44399999999996 Q 387.896 303.44399999999996 389.048 302.832 Q 390.20000000000005 302.22 391.244 301.14 L 391.244 288.72 Z  M 413.708 297.53999999999996 L 401.576 297.53999999999996 L 401.576 297.68399999999997 Q 401.576 300.49199999999996 403.106 302.004 Q 404.636 303.51599999999996 407.264 303.51599999999996 Q 408.632 303.51599999999996 409.694 303.29999999999995 Q 410.75600000000003 303.08400000000006 412.016 302.58000000000004 L 412.664 304.91999999999996 Q 411.62 305.38800000000003 410.198 305.67600000000004 Q 408.776 305.96400000000006 407.156 305.96400000000006 Q 405.32000000000005 305.96400000000006 403.718 305.46000000000004 Q 402.116 304.956 400.892 303.894 Q 399.668 302.832 398.966 301.17600000000004 Q 398.264 299.52 398.264 297.216 Q 398.264 295.236 398.858 293.616 Q 399.452 291.996 400.53200000000004 290.86199999999997 Q 401.612 289.72800000000007 403.142 289.09799999999996 Q 404.672 288.46799999999996 406.58000000000004 288.46799999999996 Q 408.20000000000005 288.46799999999996 409.514 289.00800000000004 Q 410.82800000000003 289.548 411.764 290.52 Q 412.70000000000005 291.49199999999996 413.204 292.86 Q 413.708 294.22800000000007 413.708 295.884 L 413.708 297.53999999999996 Z  M 410.432 295.27200000000005 Q 410.432 294.336 410.198 293.52600000000007 Q 409.964 292.716 409.478 292.10400000000004 Q 408.992 291.49199999999996 408.236 291.13200000000006 Q 407.48 290.77200000000005 406.40000000000003 290.77200000000005 Q 404.42 290.77200000000005 403.178 292.03200000000004 Q 401.93600000000004 293.29200000000003 401.648 295.34400000000005 L 410.432 295.27200000000005 Z  M 436.67600000000004 280.08000000000004 L 439.84400000000005 280.08000000000004 L 439.84400000000005 305.64 L 437.18000000000006 305.64 L 436.784 303.76800000000003 L 436.67600000000004 303.76800000000003 Q 435.56000000000006 304.91999999999996 434.42600000000004 305.442 Q 433.29200000000003 305.96400000000006 431.564 305.96400000000006 Q 430.196 305.96400000000006 428.918 305.424 Q 427.64000000000004 304.884 426.632 303.804 Q 425.624 302.72400000000005 425.01200000000006 301.086 Q 424.40000000000003 299.448 424.40000000000003 297.216 Q 424.40000000000003 295.236 424.922 293.616 Q 425.444 291.996 426.41600000000005 290.84400000000005 Q 427.38800000000003 289.692 428.79200000000003 289.08000000000004 Q 430.196 288.46799999999996 431.99600000000004 288.46799999999996 Q 433.32800000000003 288.46799999999996 434.534 288.88200000000006 Q 435.74 289.29600000000005 436.67600000000004 290.124 L 436.67600000000004 280.08000000000004 Z  M 436.67600000000004 292.788 Q 434.98400000000004 290.88 432.68000000000006 290.88 Q 431.708 290.88 430.79 291.222 Q 429.872 291.56399999999996 429.17 292.32000000000005 Q 428.468 293.076 428.03600000000006 294.264 Q 427.60400000000004 295.452 427.60400000000004 297.10800000000006 Q 427.60400000000004 298.836 428 300.04200000000003 Q 428.396 301.24800000000005 429.062 302.02200000000005 Q 429.728 302.79600000000005 430.574 303.15600000000006 Q 431.42 303.51599999999996 432.284 303.51599999999996 Q 434.98400000000004 303.51599999999996 436.67600000000004 301.17600000000004 L 436.67600000000004 292.788 Z  M 444.12800000000004 282.41999999999996 L 447.11600000000004 282.41999999999996 L 446.54 290.23199999999997 L 444.668 290.23199999999997 L 444.12800000000004 282.41999999999996 Z  M 451.832 282.96000000000004 L 465.51200000000006 282.96000000000004 L 465.51200000000006 285.696 L 455.144 285.696 L 455.144 292.5 L 464.576 292.5 L 464.576 295.20000000000005 L 455.144 295.20000000000005 L 455.144 302.904 L 465.62 302.904 L 465.62 305.64 L 451.832 305.64 L 451.832 282.96000000000004 Z  M 469.58000000000004 305.64 L 469.58000000000004 280.08000000000004 L 472.67600000000004 280.08000000000004 L 472.67600000000004 305.64 L 469.58000000000004 305.64 Z  M 488.12 288.72 L 491.504 288.72 L 485.20400000000006 305.64 L 482.10800000000006 305.64 L 475.736 288.72 L 479.15600000000006 288.72 L 482.97200000000004 300.34799999999996 L 483.62 303.01200000000006 L 483.764 303.01200000000006 L 484.37600000000003 300.384 L 488.12 288.72 Z  M 508.78400000000005 297.53999999999996 L 496.65200000000004 297.53999999999996 L 496.65200000000004 297.68399999999997 Q 496.65200000000004 300.49199999999996 498.182 302.004 Q 499.71200000000005 303.51599999999996 502.34000000000003 303.51599999999996 Q 503.708 303.51599999999996 504.77000000000004 303.29999999999995 Q 505.83200000000005 303.08400000000006 507.09200000000004 302.58000000000004 L 507.74 304.91999999999996 Q 506.696 305.38800000000003 505.274 305.67600000000004 Q 503.85200000000003 305.96400000000006 502.232 305.96400000000006 Q 500.3960000000001 305.96400000000006 498.79400000000004 305.46000000000004 Q 497.192 304.956 495.9680000000001 303.894 Q 494.744 302.832 494.04200000000003 301.17600000000004 Q 493.34000000000003 299.52 493.34000000000003 297.216 Q 493.34000000000003 295.236 493.934 293.616 Q 494.528 291.996 495.60800000000006 290.86199999999997 Q 496.68800000000005 289.72800000000007 498.2180000000001 289.09799999999996 Q 499.74800000000005 288.46799999999996 501.65600000000006 288.46799999999996 Q 503.27600000000007 288.46799999999996 504.59000000000003 289.00800000000004 Q 505.904 289.548 506.84000000000003 290.52 Q 507.77600000000007 291.49199999999996 508.28000000000003 292.86 Q 508.78400000000005 294.22800000000007 508.78400000000005 295.884 L 508.78400000000005 297.53999999999996 Z  M 505.50800000000004 295.27200000000005 Q 505.50800000000004 294.336 505.274 293.52600000000007 Q 505.0400000000001 292.716 504.55400000000003 292.10400000000004 Q 504.06800000000004 291.49199999999996 503.312 291.13200000000006 Q 502.55600000000004 290.77200000000005 501.476 290.77200000000005 Q 499.49600000000004 290.77200000000005 498.254 292.03200000000004 Q 497.01200000000006 293.29200000000003 496.72400000000005 295.34400000000005 L 505.50800000000004 295.27200000000005 Z  M 505.79600000000005 280.79999999999995 L 502.16 285.624 L 499.56800000000004 285.624 L 502.088 280.79999999999995 L 505.79600000000005 280.79999999999995 Z  M 528.0440000000001 297 Q 528.0440000000001 299.124 527.3960000000001 300.798 Q 526.748 302.472 525.614 303.624 Q 524.48 304.77600000000007 522.9680000000001 305.37 Q 521.456 305.96400000000006 519.692 305.96400000000006 Q 517.9280000000001 305.96400000000006 516.4340000000001 305.40600000000006 Q 514.94 304.84799999999996 513.8420000000001 303.75 Q 512.744 302.65200000000004 512.114 301.04999999999995 Q 511.48400000000004 299.448 511.48400000000004 297.36 Q 511.48400000000004 295.236 512.1320000000001 293.58000000000004 Q 512.78 291.924 513.914 290.78999999999996 Q 515.048 289.65600000000006 516.5600000000001 289.062 Q 518.072 288.46799999999996 519.836 288.46799999999996 Q 521.6 288.46799999999996 523.094 289.00800000000004 Q 524.5880000000001 289.548 525.686 290.62800000000004 Q 526.7840000000001 291.70799999999997 527.414 293.31000000000006 Q 528.0440000000001 294.91200000000003 528.0440000000001 297 Z  M 524.732 297.18000000000006 Q 524.732 295.48800000000006 524.3000000000001 294.29999999999995 Q 523.868 293.11199999999997 523.166 292.356 Q 522.464 291.6 521.5640000000001 291.25800000000004 Q 520.664 290.91600000000005 519.7280000000001 290.91600000000005 Q 518.792 290.91600000000005 517.892 291.20400000000006 Q 516.9920000000001 291.49199999999996 516.308 292.212 Q 515.624 292.932 515.21 294.13800000000003 Q 514.796 295.34400000000005 514.796 297.18000000000006 Q 514.796 298.87199999999996 515.2280000000001 300.078 Q 515.6600000000001 301.284 516.3620000000001 302.03999999999996 Q 517.0640000000001 302.79600000000005 517.964 303.15600000000006 Q 518.864 303.51599999999996 519.8000000000001 303.51599999999996 Q 520.7360000000001 303.51599999999996 521.6360000000001 303.21000000000004 Q 522.5360000000001 302.904 523.22 302.16600000000005 Q 523.904 301.428 524.318 300.222 Q 524.732 299.01599999999996 524.732 297.18000000000006 Z  M 540.788 291.096 L 535.82 291.096 L 535.82 300.924 Q 535.82 302.18399999999997 536.45 302.616 Q 537.08 303.048 538.088 303.048 Q 538.808 303.048 539.672 302.88599999999997 Q 540.5360000000001 302.72400000000005 541.184 302.50800000000004 L 541.6880000000001 304.91999999999996 Q 540.9680000000001 305.20799999999997 539.8520000000001 305.424 Q 538.7360000000001 305.64 537.5120000000001 305.64 Q 534.9920000000001 305.64 533.84 304.54200000000003 Q 532.6880000000001 303.44399999999996 532.6880000000001 301.356 L 532.6880000000001 291.096 L 530.168 291.096 L 530.168 288.72 L 532.6880000000001 288.72 L 532.6880000000001 283.32000000000005 L 535.82 283.32000000000005 L 535.82 288.72 L 540.788 288.72 L 540.788 291.096 Z  M 545.504 305.64 L 545.504 288.72 L 548.672 288.72 L 548.672 305.64 L 545.504 305.64 Z  M 547.0880000000001 284.36400000000003 Q 546.26 284.36400000000003 545.666 283.80600000000004 Q 545.0720000000001 283.24800000000005 545.0720000000001 282.41999999999996 Q 545.0720000000001 281.592 545.666 281.01599999999996 Q 546.26 280.44000000000005 547.0880000000001 280.44000000000005 Q 547.8800000000001 280.44000000000005 548.4920000000001 281.01599999999996 Q 549.104 281.592 549.104 282.41999999999996 Q 549.104 283.24800000000005 548.4920000000001 283.80600000000004 Q 547.8800000000001 284.36400000000003 547.0880000000001 284.36400000000003 Z  M 568.2560000000001 297.53999999999996 L 556.124 297.53999999999996 L 556.124 297.68399999999997 Q 556.124 300.49199999999996 557.654 302.004 Q 559.184 303.51599999999996 561.8120000000001 303.51599999999996 Q 563.1800000000001 303.51599999999996 564.242 303.29999999999995 Q 565.3040000000001 303.08400000000006 566.5640000000001 302.58000000000004 L 567.212 304.91999999999996 Q 566.1680000000001 305.38800000000003 564.7460000000001 305.67600000000004 Q 563.3240000000001 305.96400000000006 561.7040000000001 305.96400000000006 Q 559.868 305.96400000000006 558.2660000000001 305.46000000000004 Q 556.664 304.956 555.44 303.894 Q 554.216 302.832 553.514 301.17600000000004 Q 552.812 299.52 552.812 297.216 Q 552.812 295.236 553.4060000000001 293.616 Q 554 291.996 555.08 290.86199999999997 Q 556.1600000000001 289.72800000000007 557.69 289.09799999999996 Q 559.22 288.46799999999996 561.128 288.46799999999996 Q 562.748 288.46799999999996 564.0620000000001 289.00800000000004 Q 565.376 289.548 566.3120000000001 290.52 Q 567.248 291.49199999999996 567.7520000000001 292.86 Q 568.2560000000001 294.22800000000007 568.2560000000001 295.884 L 568.2560000000001 297.53999999999996 Z  M 564.98 295.27200000000005 Q 564.98 294.336 564.7460000000001 293.52600000000007 Q 564.5120000000001 292.716 564.0260000000001 292.10400000000004 Q 563.54 291.49199999999996 562.7840000000001 291.13200000000006 Q 562.028 290.77200000000005 560.9480000000001 290.77200000000005 Q 558.9680000000001 290.77200000000005 557.7260000000001 292.03200000000004 Q 556.484 293.29200000000003 556.196 295.34400000000005 L 564.98 295.27200000000005 Z " fill-rule="evenodd" fill="rgb(0,0,0)"/><path d=" M 246.48725781455022 328.49527378235746 C 247.01266748951988 327.97807481974615 247.20713962401695 327.8350559200374 247.18610716125045 327.53585136175235 C 247.1466471054868 326.97406769640116 247.52984577601825 326.35403291834365 247.9564639043628 326.26337481633476 C 250.4922376424919 324.3411994562168 253.14281915508528 321.9290920170582 253.10830090939842 318.21370402940255 C 252.6611266373309 316.38480810799655 250.59680455752002 317.00941300856766 249.44786348461054 316.05258994587837 C 247.92556270641288 314.6365230522813 245.40343848587537 312.05297960663927 244.60835780740905 310.19290897327403 C 244.44027672491833 309.7356637467615 244.38427946736167 309.2189321996942 244.38427946736167 308.49016396492163 C 244.38427946736167 307.3192426042748 244.19854481031956 306.7964800779622 243.98080746753934 307.3545537240109 C 243.92379803201513 307.50069214626905 243.87402269196474 308.2136869379959 243.8702270245865 308.93898692012664 C 243.86367763773777 310.19832454647394 243.88548411895002 310.289165805044 244.3558789443903 310.9560769407345 C 246.08948675828034 312.916952549596 247.1119651251288 314.9441865131862 248.89820619333045 316.3090413670349 C 248.90728602509802 316.68340605175104 248.73494784115562 316.98140031148006 248.84975561561993 317.3641491709392 C 249.08160391006518 318.27902791587394 248.92885434678854 319.7595717800038 248.03784003595834 320.340059393379 C 243.5054708320223 321.3082235103344 239.30045337925912 323.81819076748604 237.18223282267715 327.5204764673837 C 236.0361824109632 328.26020332552264 235.8677783246211 327.3168210239163 235.2347860396789 327.3510669050928 C 235.12296567871584 328.52012299932096 235.1030629851807 328.8631620510715 233.48151815726658 328.9283071767393 C 228.97013527268967 329.1639168464901 229.58492621618043 328.0855291110382 231.5657599871371 325.28745365270186 C 232.10094611047552 324.3066356152502 232.73104326873118 323.96034956398364 234.8973913991723 323.45646681599385 C 237.6872694390562 322.96975536192434 241.39533281421046 320.837511148194 241.65933264409495 318.1202048028172 C 241.79003756663752 315.75247839630254 239.72942184438418 315.89700797132764 239.75316337171083 313.3016897566828 C 239.74792386223183 312.26823105830584 239.902355427131 311.2204407253324 240.41419000935963 310.30741405954393 C 240.88308145281871 308.850992647143 240.95432091976883 307.1343804892333 241.12902581395886 305.60553750730355 C 241.45121099200628 306.20518476222696 241.50966426963123 307.6138653180262 242.1395366648382 307.81632365021 C 242.49613589378174 307.8665363877608 243.6400309618236 307.4394636405048 243.6400309618236 307.2561136660321 C 243.41479159410756 306.82213957955224 242.7468583303274 307.2838069380771 242.33893572444197 307.34074078879564 C 242.1741144504055 307.17849338067174 241.92249891565322 305.8346605042849 242.19903189037095 305.9653947271246 C 237.8038470364667 303.302777465653 234.1872830610803 299.55719062419587 231.30598897726117 295.1719316908217 C 231.1989809271349 294.4314692759332 231.7334957383213 294.4458463333567 232.37988449636316 294.3601173407214 C 232.17171818936416 293.68480884301556 231.1590698567769 294.0402204867845 230.98313099856472 294.56559116252777 C 230.02967870361093 295.84914941252083 227.8433713167483 295.5455036739412 227.26369848323986 294.42922157861483 C 225.66648611596574 292.9373659652688 223.4694675046114 291.1912436222275 221.66307218687976 290.64518065083234 C 219.52669196676263 290.7351237096265 217.7169549732411 292.4929226497539 216.41447543363915 294.00213710933895 C 216.67975239395912 295.5457146702996 216.1487861596471 295.97824694833014 215.20973953876654 296.3459491299781 C 216.20965080243002 297.7542076930605 215.16841737324205 298.37507913028935 214.01894192990562 299.1146096445947 C 210.59115956494298 301.3800863366588 210.80685171282997 298.0144863537187 211.30580633042177 295.33884885862847 C 211.5780137328253 294.0388226359098 212.1088861918256 292.69098668972265 213.83484461957573 292.12705496422234 C 216.06651990683895 291.1941272391261 218.390223010309 287.98495614667553 219.32643553288048 287.046806261708 C 220.04129515343183 286.7279951598656 221.00540955247598 286.6821137086728 221.79029700341044 286.9622831718712 C 222.07169438636035 287.0232611194598 222.91819817106833 287.5452895542753 223.9260356813158 287.8353480065231 C 226.6602513754705 288.14027584103076 230.80375668925097 289.38472650208826 231.2483990279026 288.9686621967833 C 231.14408218037235 288.6543230455378 231.00075480317585 288.4936361313149 230.9988673889658 287.9164321487678 C 230.84732797375918 288.0233633449212 230.72961018763823 288.2256018892316 230.5770094740627 288.5958843805129 C 230.20113569732277 288.5998552147586 230.1997156711742 288.51545081037335 229.7597978220357 288.41541509243393 C 229.48113480809513 287.5525747896514 231.07751659403704 285.6586978508564 231.1315177771019 284.87849925371455 C 230.65169778858746 285.2548127242413 230.22730049778346 285.9061907182943 229.82969466468182 286.38185270334304 C 230.04928369774382 284.7722010466365 230.34989311161567 283.1081855920774 231.56941424729933 281.9325314658905 C 233.68543182830493 280.34476042460454 236.11411713746915 279.2114506301017 237.83489410712372 277.16217340806463 L 238.61733149197795 275.3903080440415 C 239.27010887919138 275.7044611082208 240.3066163303692 276.4266928516393 240.9607363418866 276.03886103129537 C 240.6191411628147 275.5872453048461 239.90418627845463 275.59525437495176 239.56665618472002 275.1537532864351 C 240.90421811037604 274.8516123621618 242.55781920992072 274.94844357290754 243.718965958321 274.0043403670765 C 241.7040619792778 274.3796310913658 239.67178575161833 274.96319866547327 237.7439886176633 274.345971311185 C 234.36438443545816 273.26391458350025 233.35904760018929 277.24236521154353 231.49688425344064 275.54224447039917 C 231.0119914671125 274.8290416128189 233.0679794521584 274.41530998947667 232.51571580261194 274.11333756923966 C 231.39011138584215 274.27913381889226 230.88657219745622 276.0510783065499 229.52682273535314 274.75275470722363 C 229.19282633352282 273.0535160480778 229.88751086558605 271.587356567634 230.46394919508944 270.6492989935733 C 231.3544678364149 270.1229993477519 232.48892434490958 269.8471802191938 233.7126385766734 269.37416008438294 C 234.8788283529472 268.5922046495066 236.03881258518183 267.8164853292241 236.97058938666032 267.330260338981 C 237.73876548165143 267.22665087022057 239.6210905204151 266.60431711100756 239.6210905204151 266.3844427877378 C 239.6210905204151 266.17463181856345 238.45592334158792 265.60788827353645 238.15902475076464 265.8539920816146 C 238.648917398553 267.2144570390058 236.41623439881326 267.64976303999833 236.5373117226882 265.6663474520962 C 237.314582534417 262.47144938414243 241.1304696560596 265.74425199643946 242.98799484612172 265.30216920268464 C 243.28128829718418 264.24474483459505 243.73661953287234 263.1050113731798 244.17076945609293 262 C 245.58199858732408 262.41517196653905 245.6621392664004 264.1686879736406 245.8767507654574 265.3839581313767 C 247.57633153767424 264.49706863948967 249.29916263320408 265.00870110789464 250.37394678502167 266.4303007948908 C 250.00639221807666 266.7722658165668 248.14200505679347 266.8554262215887 248.2699711448357 267.53119480857606 C 249.71842758631388 267.01303317507944 251.206790632659 266.8248595894124 251.83844922427926 267.23765638166657 C 252.47012270086964 267.65045463917323 252.66609821734795 268.6124222033519 253.9768984552418 269.43616077820894 C 253.26876088719246 270.3692174455242 251.58638714042365 268.61330868110787 251.3349799952529 269.91110039378054 C 252.43703341231344 269.96520337669006 253.8012111530245 269.9337737107977 254.42821074900007 271.09743328010836 C 254.49633925719704 271.956544515306 254.5871524598428 272.73547127328726 254.98510213575398 273.5150559296361 C 254.1607427210798 273.65795467864075 253.02329284509585 271.5593497315564 251.9123531008792 272.794871143945 C 253.55523702194415 273.06313982642655 254.5913202514738 273.7123507120481 255.35436847426175 275.2932687674423 C 255.4886160196907 276.74607833245744 254.5653013237202 277.62087509555147 255.42432783378234 278.42227882671637 C 254.72748795804705 278.79320749434544 253.83369015780613 278.0360661103729 253.61296093603366 277.41390232044864 C 253.45206929410645 276.8318967054946 252.57299272930513 276.17123487167044 252.0714138914828 276.66252523976846 C 252.81098851640607 277.45988340881075 253.7903004699333 278.1238874835628 253.9890445908522 279.3102320919105 C 253.48579863637744 280.32885217832984 253.08895044825445 281.2504872024921 253.51424381425912 282.3929826648494 C 252.01371974733348 283.10953069386244 251.7526076016505 280.7917269049057 250.55703191738405 280.7770450749644 C 251.36955778082017 282.01135032778706 252.47039063033165 282.9719669291708 251.95991058038308 284.38763380883836 C 251.5361205963596 284.84141957422406 251.34035346946288 285.6204723439194 250.87044984803626 285.99671255182164 C 250.1965030563313 285.7181592621187 250.48801031098046 283.0863372122116 249.3881003296159 283.6483465264462 C 251.0110383907324 284.86284889187795 249.7976453972434 288.4418189422885 246.96610730301344 286.36851890569176 C 248.68581255482005 286.1196047433394 247.75837472212882 284.79602165635265 246.65553240165244 285.45656773523024 C 246.28568554931036 288.37796323881116 251.21689752736424 295.7381814457598 256.47352472197963 298.45073597731425 C 258.43802819222776 300.1790056840277 258.8615502467893 301.2123735367503 259.8140394841769 303.2458978292765 C 261.9964738018167 302.66269363778633 262.60445040599075 300.08807944081326 262.05579040770806 298.16938112485207 C 260.3914274747733 295.97938398426174 258.2846385752364 293.7852313876121 260.3083842265254 290.11049243451055 C 262.8724691778051 284.75431031374393 268.42673623475525 285.61149620717083 272.00823866304574 287.79046878803274 C 273.951516165916 288.5065611235217 274.4304698491699 286.22181343072026 275.9910547704925 286.12895598472517 C 277.478256789169 286.03151083318653 278.40259854807715 287.2634921955614 278.311189946627 288.37940944301795 C 277.8392173143549 288.42714736911455 277.44013638071533 288.141522770899 277.0154532984852 288.0591389496963 C 275.60880873804814 288.73555371303144 275.861168521306 290.44780967529096 274.45922761142396 291.5700480219857 C 272.34749690181025 293.3431691073921 270.9738076651984 292.31846236213283 270.0967108014218 292.0922127252827 C 270.0288204527466 293.690546771763 271.3215056820157 294.1926067456564 272.3332519854142 293.89437511502416 C 273.50286828180754 293.57024221614114 274.2599922864914 292.39401224572606 275.4102432367706 292.34531897500653 C 276.2956310288989 292.3088356532791 277.01589984758857 293.32644178497594 276.72631275408366 294.1491077950109 C 276.31190030122997 294.13898290031085 276.0248138827037 293.80186932962647 275.59581415914147 293.88185453250435 C 275.01433280176457 294.6999416285107 274.50845220758026 296.5567242352903 273.03094030444583 296.7410632551931 C 271.5172728089124 297.4115144408974 270.7077685944088 296.68163407948555 269.54142699143983 296.5115622230696 C 269.9344795121846 298.3572235634565 271.0180160264274 298.0751800423244 272.1209774266647 297.5832801291908 C 273.3947736288632 296.8120913696048 275.1794071202929 297.2420418727495 274.839419517993 298.92600087893845 C 273.3931660520912 298.0901314787237 274.0544159642917 300.49076452563975 270.96523392241465 300.5870477319545 C 269.80943087828416 300.92219346854597 269.131152560277 299.64969201383605 268.06924390760514 299.68326387886754 C 268.02439549266137 300.1287519194072 268.13089745380387 300.6026233659142 268.33779853834346 301.00085847893115 C 270.1702574387391 301.254561086418 272.60548320376995 300.75131132750346 272.0870248098421 303.0144333588175 C 271.47260301361007 302.5644880202059 270.9621229636615 302.1835707263582 270.1127121442909 302.71166384122637 C 268.3343303403077 304.01155819122096 267.86722509326194 306.85690562536234 265.66978672575044 307.6208809469443 C 262.67685090060957 308.7774809297622 261.8063183086518 306.7908916049686 260.30219207895937 305.5076894113304 C 259.8478283663284 305.76154880083357 259.73924250937034 306.28051925370426 259.7157986814459 306.7617565244742 C 259.51251464464326 309.0282310534834 257.622182980457 310.56664799517733 257.13365826142183 312.74864339192436 C 256.9421928908871 315.21127566741393 258.42576297685656 314.6298473619407 259.1908057856394 315.9458140664888 C 259.5183495529267 316.842538333083 259.4027826449867 318.2299434227398 258.8725651246713 319.04560259537163 C 256.61802801181494 320.5743342181122 254.94278416572922 321.77871608460134 253.56168221400225 324.0286010249284 C 251.87265488559393 325.689305008862 252.63165439651175 327.3058096514603 251.64339657594797 328.73839287111514 C 251.32400977228136 329.0134090413092 250.85557976289573 328.8253219055391 250.53503193156047 329.0842745126946 C 250.4312539199482 329.70223742373247 251.03766760226065 330.33353120191657 250.5501848311332 330.8822111142573 C 249.53887019186786 331.4047685052214 248.45335397660037 331.9274665604245 247.29359153042037 331.98919471728755 C 244.05122826113347 332.1654689874901 244.85373653968506 330.15006840300225 246.48725781455036 328.49527378235734 L 246.48725781455022 328.49527378235746 Z  M 246.6062036107053 329.85946780733354 C 246.2302390356477 330.22200497395727 245.9271959291627 330.5596416397803 246.27072615434898 330.83151484338515 C 246.86862563375806 331.18649130716483 246.77985167201746 330.3437513380285 246.6062036107053 329.85946780733354 Z  M 249.14746990280523 328.6651243856476 C 249.14746990280523 328.4937381977488 248.10357206396745 328.044421452455 247.93858705525977 328.14479417846695 C 247.63465085056814 328.6367395144277 248.8757447734333 329.06008026359376 249.14746990280523 328.6651243856476 Z  M 231.73574039181392 327.5381547386653 C 232.08437020776014 326.85129125983 231.90375300344215 326.8161193390804 231.5087818100501 327.18138041008143 C 230.62600781867323 327.62261775315005 231.63020148823762 328.2280278461133 231.73574039181392 327.5381547386653 Z  M 233.96480187832572 326.6852371257393 C 233.6259410682632 326.3925822460808 233.1233307020122 325.8510161345749 232.699579418911 325.71612792092844 C 232.04230677072414 325.9727434503638 233.70927903891933 327.19758756786393 233.96480187832572 326.6852371257393 Z  M 247.35272951667028 317.68317713014994 C 247.42617195919678 319.2317805071484 246.71836186048986 319.1322136700055 245.90644628082828 319.6824291669548 C 246.82219941198252 320.23726020924505 248.5540656843696 318.352300797099 247.35272951667028 317.68317713014994 Z  M 257.3297528576608 315.82837994049316 C 258.50530825712826 316.7073541384338 256.81788850549196 318.0969908076315 257.2338341102671 318.38986547516345 C 258.32804314807925 318.0773007446823 258.82198599623473 315.8839598979117 257.3297528576608 315.82837994049316 Z  M 241.4072854452093 314.295806425726 C 241.29082543906273 314.0027647194104 241.15514893650314 313.49272351520864 240.96073634188647 313.3347443875856 C 240.43026577707917 313.6781702659933 241.29167388235905 315.0515851248837 241.4072854452093 314.295806425726 Z  M 254.93147158844482 312.0552375607251 C 255.11061220372784 312.28194289109933 255.48035486127915 312.2617077542241 255.6062817084162 311.87317407793785 C 255.47257002191122 311.79212656700537 255.13523194429104 311.7498247276435 254.93147158844482 312.0552375607251 Z  M 256.2099416712581 310.34121157345874 C 255.67976880585303 310.20030263733435 255.27095310176097 310.42964395693656 255.2014700612839 310.79368154210914 C 255.70045891430695 310.8483471819745 255.99736941310633 310.6622088320149 256.2099416712581 310.34121157345874 Z  M 256.582720862712 309.3741639789001 C 256.3648495552008 309.2416157734788 255.39915734932495 309.4299520021721 255.39915734932495 309.60498959927384 C 255.62241701601627 309.81882415178336 256.9000684254735 309.67823171019666 256.582720862712 309.3741639789001 Z  M 257.15262171334274 308.3058000357265 C 256.9967314213727 307.98287743539953 256.4148183998626 308.1781311210941 256.17613790413657 308.3999718132044 C 256.3320430810767 308.7228944135313 256.9139412176167 308.52764072783674 257.15262171334274 308.3058000357265 Z  M 257.2977352869525 306.8510021230836 C 257.18530910770596 306.552682577302 256.71131211949887 306.6187654645628 256.5899549581858 306.8978242663745 C 256.5899549581858 307.1733825799896 257.2034687712411 307.13279655129253 257.2977352869525 306.8510021230836 Z  M 265.96748612796546 300.07222394362816 C 266.00353752557373 299.03294526236425 266.0380855412008 297.5357825045025 267.23005906270043 297.143704382445 C 268.08051182997883 297.87301622589104 268.596990522882 299.91090843608737 270.0533806534292 299.04474640591195 C 268.5512638947017 298.98069875435857 268.4507456915437 297.61009424974236 267.27379110488585 296.7041286356991 C 265.82066078279286 296.8844704468115 265.5445892421486 298.2778786759164 265.5209370246426 299.4710293820762 C 266.07370527467583 301.35908633798425 264.29273348589334 301.539057440217 263.7723251608809 302.04489336977485 C 264.96218501662486 302.67117158868865 265.9224888633206 301.0746661773148 265.96748612796546 300.07222394362816 L 265.96748612796546 300.07222394362816 Z  M 253.4792343645585 299.7811588629204 C 253.26779336413512 299.9883763351889 253.0984172892448 300.4337427597719 253.10964055670829 300.8005833729563 C 253.63298122083256 300.8050084354735 253.64651165866323 300.3383108651534 253.4792343645585 299.7811588629204 Z  M 251.7895520974653 298.6440218289159 C 251.61935734921886 298.6984354453531 251.10654035896292 299.55848297689136 251.0896608028573 299.8177901751492 C 251.3944752207855 300.09953185426855 252.25116479054026 298.8520495858109 251.7895520974653 298.6440218289159 Z  M 212.0838958155065 297.6565427536485 C 211.91738509736248 298.01426510059287 211.84308676905462 298.61611756051246 212.1831279572469 298.8043233817342 C 212.52537807500363 298.3816361351783 212.34748630871292 298.0315814545097 212.0838958155065 297.6565427536485 Z  M 250.2241742157671 297.1160916992869 C 249.7914979045875 297.1230663011353 248.70072729487092 298.4410345405836 249.27644816881494 298.608956871598 C 249.66628553601575 298.2349335907118 250.24047325803838 297.6797552835817 250.2241742157671 297.1160916992869 Z  M 248.52224161827277 295.29399308417806 C 247.72086459744958 295.77264711480973 246.54201961958762 297.0689091038837 246.25877352334996 297.94959325147914 C 247.0251559794427 297.4474849242537 248.29661524133382 296.42585960497905 248.52224161827277 295.29399308417806 Z  M 212.32445330596354 295.9730365104788 C 212.57223447241532 296.76537325924073 213.29985497784264 296.6203542898843 213.93813142717417 296.9167924514698 C 213.85919047668875 296.32113800957933 213.20933947459912 296.21687650346115 212.32445330596354 295.9730365104788 Z  M 262.7051918837002 292.0377053326863 C 262.88602938557585 291.2956531188471 263.20677072152256 290.6897155349877 263.68855254909755 290.1661456545536 C 266.4336089669839 287.1259899714743 268.3002288737837 289.4784865436167 270.86224481421806 289.0330116903495 C 270.0273021857951 288.8876014985784 267.77885302571406 288.2350600940491 266.2678797097707 288.0599726783627 C 265.1252945190986 288.5324418782376 264.4044154166344 288.86071265015 263.51963790828063 289.69264345167386 C 260.765814242999 293.23299384222776 262.7771160592754 294.224474522043 263.9057391479837 296.5259173017059 C 264.07429654951795 294.6457126338872 262.1340109256399 294.3358175934413 262.7051918837002 292.0377053326863 L 262.7051918837002 292.0377053326863 Z  M 246.87117096364688 293.4022114564426 C 245.94270606801805 294.327336712034 245.28419499031799 294.85590603396116 244.4597164958829 295.5335486788822 C 245.2755319377135 295.7762413791656 246.6462739502434 294.20150375877057 246.87117096364688 293.4022114564426 Z  M 271.13408902335095 295.4420128906323 C 268.58046820605904 295.1007116283339 269.09737856309545 293.7379169194849 267.4672957163258 292.9000606368949 C 266.19622346365753 292.4479130237921 264.81550852115345 293.6627113702267 265.04037576461667 294.93668540368816 C 265.61492072592193 293.78415442703266 266.26927889696117 292.8592841253743 267.54082746867294 293.3563344010072 C 268.73342615891727 294.3148044074943 269.30491970134983 296.08984350840905 271.13408902335095 295.4420128906323 L 271.13408902335095 295.4420128906323 Z  M 230.80174572978896 293.2241539739607 C 229.13471987570136 293.4156111904559 229.41868045050435 294.24277699088503 227.56935836747027 292.6093091202198 C 227.9688843617162 294.27708441266606 229.8329380996689 294.17842749731886 230.80174572978896 293.2241539739607 Z  M 246.05883860482226 291.32721319221093 C 245.2185671570997 291.62962225768973 244.56054728341326 292.39247519586496 243.93773036403877 292.8240008454355 C 244.78667974933595 293.02486351765856 245.62638556819434 292.2007205331145 246.05883860482226 291.32721319221093 Z  M 244.83082857068445 289.0630742756694 C 244.63165278563238 288.94460275091143 242.7810044517614 289.86399300826037 242.99502055201393 290.30585894464684 C 243.5828131367178 290.41589061506727 244.68543218264256 289.71076569445967 244.83082857068445 289.0630742756694 Z  M 221.4614269852862 287.77610198737665 C 221.13488348799035 287.41521322980327 220.4866579246368 287.2001317474254 220.18680764424056 287.7511223629416 C 220.5667524603058 287.7398545713 220.93516440152922 287.73715850671994 221.4614269852862 287.77610198737665 Z  M 248.49945272903327 284.6991977718694 C 248.49945272903327 284.4568508711735 248.04172501315722 283.7750263956484 247.9151283423652 283.8996446545984 C 247.85462093886494 284.3146818179084 248.2401714346739 284.52641080259104 248.49945272903327 284.6991977718694 Z  M 250.63596691388136 282.85289465089227 C 250.39224041328777 282.4558918152187 249.9932487894688 282.00899127127957 249.61531939835658 281.6973555108765 C 249.0650964782123 282.12078710569693 250.39294000688298 283.5213399059389 250.63596691388136 282.85289465089227 Z  M 247.39643178891552 268.39566154162156 C 251.11737661720363 272.15543349242614 250.81183283574003 276.48584802513136 246.61702498397582 282.69859330701706 C 249.012105984618 281.5299636012632 253.42170395508043 271.85973674860014 247.39643178891552 268.39566154162156 Z  M 238.69825065499103 281.0419744470232 C 237.87475010309223 280.720435045046 236.57002442150056 280.8861594973267 235.6032858022259 281.4711483663486 C 236.68242678479498 281.39554573366576 237.52749416988723 281.48659066233176 238.69825065499103 281.0419744470232 Z  M 252.6409277328906 280.27003401291023 C 252.71682619548537 279.7124658789703 252.24239754314507 278.1627049525054 251.62084584623003 277.9488967745407 C 250.84341874231507 277.9983343935247 252.18017836808207 279.9206460221242 252.6409277328906 280.27003401291023 Z  M 239.76001641194978 279.3196697831931 C 239.62392759571813 278.75756522754676 238.6163639689207 279.1122076137589 238.31334021289686 279.39321666663363 C 238.5891081001509 279.66812733864856 239.34108339367344 279.44574889887474 239.76001641194978 279.3196697831931 Z  M 240.5141872385637 277.76574021339655 C 240.38575971644804 277.5247296229707 239.57383669430138 277.78404854324856 239.39781596875358 277.9122654623119 C 239.48967558479814 278.14814766902566 240.35229830363903 277.91781876924574 240.5141872385637 277.76574021339655 Z  M 252.15634753093474 274.4989846981223 C 252.38185482811278 274.8402610511284 253.07970688181558 275.31402699945613 253.6656388452556 275.4647267527131 C 253.75258195567255 274.8759443449967 252.6550684544958 274.56228800141116 252.15634753093474 274.4989846981223 Z  M 231.44976588055496 271.26321194673113 C 231.7025826323952 272.0325574186858 231.54274782334585 272.4213328616328 230.98780785617348 272.9897482597499 C 231.77453062392257 273.3947293952269 232.60095458395114 271.496110899377 231.44976588055496 271.26321194673113 Z  M 235.9741105971043 270.6150677649217 C 235.1329921945824 270.7454664449414 234.89959586324568 270.777738631015 234.52018988309845 271.5494797907894 C 235.06914758078332 271.372645794136 235.30228342514314 271.1357452369422 235.9741105971043 270.6150677649217 Z  M 253.39410722049513 271.4403184803475 C 252.97805742092922 270.91227957982153 251.94373061787266 270.7768668057839 251.41704083547344 271.1707955417353 C 251.8833720640735 271.2225262808648 252.8534255661918 271.4470894120999 253.39410722049513 271.4403184803475 Z  M 235.2919562328803 270.018361271744 C 234.90185391321148 270.01953347373535 234.4850911235773 270.57467514955323 234.5866795560862 270.88978209310307 C 234.9198781235186 270.6979614939906 235.20472286554616 270.37268423291357 235.2919562328803 270.018361271744 L 235.2919562328803 270.018361271744 Z  M 240.5141872385637 269.5288497201678 C 240.5141872385637 269.2847430512324 239.9802931306309 268.95614259750994 239.78083750814073 269.07748894765166 C 239.44696465156233 269.5155701368586 240.26429836034424 270.0610206327132 240.5141872385637 269.5288497201678 Z  M 241.32638563265738 269.73130219134157 C 241.5575492184775 269.16811481410576 240.8294360205395 268.3629527103062 239.74260695090825 268.27419943653325 C 240.6320315469306 268.7781759606824 240.5734145346344 269.2000543878643 241.32638563265738 269.73130219134157 Z  M 245.87277647843777 268.66248548514886 C 245.87277647843777 268.4462537795671 245.11178238152513 268.05482769486724 244.93911672824026 268.159878972077 C 244.71195719937995 268.5039422353175 245.61486460132863 268.87817797781463 245.87277647843777 268.66248548514886 Z  M 251.19287318560544 268.30932153869827 C 250.6139371581175 267.83674977114913 249.53357114250832 268.20994371912644 249.52979036010018 268.58750998053137 C 250.08211206103013 268.41095877760836 250.3076937830587 268.4546628636023 251.19287318560544 268.30932153869827 Z  M 247.91249370265564 266.13453811470276 C 247.77388486098425 265.99810405968026 247.06357408729872 266.65743837474935 247.06357408729872 266.922525994077 C 247.44707045723237 267.37469705121964 247.8889010250301 266.52936505042993 247.91249370265564 266.13453811470276 Z  M 244.51866097752162 263.5139838564373 C 243.88247735498769 264.1204254871529 244.45008592022134 266.0678574044264 244.03722150425915 266.8314136637964 C 244.81515469715788 266.80019206375755 244.6738516758964 264.2380779357694 244.51866097752162 263.5139838564373 Z  M 210 288.10551419097806 C 210.0897831627141 286.84836272134453 211.06322894952066 285.8399188134624 211.63734671218376 284.91338691548134 C 212.3441654718813 283.7252590948543 213.23355285547837 282.98564799166206 214.79630949394007 282.8839873087121 C 216.92681163936047 282.39695349909505 219.1878906965805 281.5609610176712 220.98945881850523 280.37173718818235 C 222.09289207229503 279.3295104189102 223.0012682122624 279.3025688213922 224.8057850467661 279.8585867181986 C 226.34767742262352 281.5305716810462 227.60698757191025 282.75443700988365 229.9537787525191 283.94309964766916 C 229.48973236683105 285.279506624441 229.55106439767542 287.02130940314424 229.14735572682838 288.3042800868891 C 228.11861227606033 288.2032289489747 226.62450363125245 287.8753699130118 225.0504388809976 287.6110207809387 C 223.92094204454384 286.5321788172152 224.63994415227705 283.1970048022124 222.376982146338 282.78422998874555 C 220.8967805291046 283.2658291768804 218.9386582455429 284.1485383034158 218.178575108801 285.1727717721211 C 217.0091999489235 287.16560746827605 216.72046874120002 286.79394470914986 215.4960177034157 285.86126021596687 C 215.17577501396772 286.60039071634276 215.64371977332777 287.49700215849526 214.91779615449306 288.0551036443412 C 213.93516634112817 288.5817168541953 210.34612318697955 290.12177487867706 210 288.10551419097806 L 210 288.10551419097806 Z  M 211.9315823818542 286.8346860546108 C 211.47923707117025 287.0853995470198 211.14927300774292 287.4482209726264 211.23986888982506 287.68062320467845 C 211.75016883163528 288.19099702119524 211.88996698241854 287.41431063426995 211.9315823818542 286.8346860546108 Z  M 213.87009222879794 286.1611974004965 C 213.50538813362914 285.86662597058216 212.91089731237545 285.6675831419507 212.43864781965937 285.6220885174149 C 212.12971175350754 286.4495766733917 213.3790340878499 286.461020295332 213.87009222879794 286.1611974004965 Z  M 224.53237493877762 282.01400096953995 C 225.44518977683202 280.50329195241596 222.06715893596757 279.48461472114957 222.1283346746258 280.7363301040483 C 223.24423706787738 280.18955062418604 224.23980638575955 281.22614349763734 224.53237493877762 282.01400096953995 Z  M 243.04037505594144 262.44433928258815 C 243.28356569761107 263.1437130871758 243.18720040111398 265.85269386790924 241.77527167628762 264.84955856979525 C 241.5301608734737 264.00782522911896 242.12331204741744 262.54474863991237 243.04037505594144 262.44433928258815 Z " fill-rule="evenodd" fill="rgb(0,0,0)"/></svg>
