<?xml version="1.0" encoding="UTF-8" standalone="no"?>
<!-- Created with Inkscape (http://www.inkscape.org/) -->

<svg
   xmlns:dc="http://purl.org/dc/elements/1.1/"
   xmlns:cc="http://creativecommons.org/ns#"
   xmlns:rdf="http://www.w3.org/1999/02/22-rdf-syntax-ns#"
   xmlns:svg="http://www.w3.org/2000/svg"
   xmlns="http://www.w3.org/2000/svg"
   xmlns:sodipodi="http://sodipodi.sourceforge.net/DTD/sodipodi-0.dtd"
   xmlns:inkscape="http://www.inkscape.org/namespaces/inkscape"
   width="43.65625mm"
   height="56.620834mm"
   viewBox="0 0 43.65625 56.620834"
   version="1.1"
   id="svg906"
   inkscape:version="0.92.3 (2405546, 2018-03-11)"
   sodipodi:docname="canal2.svg">
  <defs
     id="defs900" />
  <sodipodi:namedview
     id="base"
     pagecolor="#ffffff"
     bordercolor="#666666"
     borderopacity="1.0"
     inkscape:pageopacity="0.0"
     inkscape:pageshadow="2"
     inkscape:zoom="1"
     inkscape:cx="179.61375"
     inkscape:cy="111.76058"
     inkscape:document-units="mm"
     inkscape:current-layer="layer1"
     showgrid="true"
     fit-margin-top="0"
     fit-margin-left="0"
     fit-margin-right="0"
     fit-margin-bottom="0"
     inkscape:window-width="1920"
     inkscape:window-height="1027"
     inkscape:window-x="-8"
     inkscape:window-y="-8"
     inkscape:window-maximized="1">
    <inkscape:grid
       type="xygrid"
       id="grid1455"
       originx="-49.46003"
       originy="-169.33333" />
  </sodipodi:namedview>
  <metadata
     id="metadata903">
    <rdf:RDF>
      <cc:Work
         rdf:about="">
        <dc:format>image/svg+xml</dc:format>
        <dc:type
           rdf:resource="http://purl.org/dc/dcmitype/StillImage" />
        <dc:title></dc:title>
      </cc:Work>
    </rdf:RDF>
  </metadata>
  <g
     inkscape:label="Calque 1"
     inkscape:groupmode="layer"
     id="layer1"
     transform="translate(-49.46003,-71.045837)">
    <path
       style="font-style:normal;font-weight:normal;font-size:10.58333302px;line-height:1.25;font-family:sans-serif;letter-spacing:0px;word-spacing:0px;fill:#ff0000;fill-opacity:1;stroke:none;stroke-width:0.11465415"
       d="m 69.103584,71.045837 c -3.460638,0 -6.921427,0.385504 -10.382065,1.156363 -3.43574,0.770859 -6.037369,1.541643 -7.805033,2.312502 v 12.34625 h 1.194966 c 2.16601,-1.467119 4.506447,-2.673214 7.021011,-3.618138 2.539462,-0.944924 4.954366,-1.417311 7.244859,-1.417311 0.240082,0 0.474166,0.0058 0.705373,0.01433 H 89.60555 C 88.718747,79.28828 87.200641,77.157115 85.049757,75.447268 81.389944,72.51303 76.074652,71.045837 69.103584,71.045837 Z m 6.757506,18.8149 c -0.01784,2.084225 -0.651166,4.192421 -1.902804,6.324972 -1.269731,2.163378 -3.410696,4.699761 -6.423193,7.609121 -2.016631,1.96445 -4.705472,4.30204 -8.066524,7.01248 -3.336155,2.71044 -6.672384,5.2716 -10.008539,7.68365 v 9.17571 h 43.65625 v -10.6304 H 68.132463 c 0.970971,-0.69625 2.601853,-1.91464 4.892346,-3.65528 2.290495,-1.76552 4.568541,-3.69281 6.83414,-5.7816 3.610018,-3.35696 6.286336,-6.61432 8.029102,-9.772347 1.423155,-2.542547 2.272328,-5.198104 2.549694,-7.966306 z"
       id="text1453"
       inkscape:connector-curvature="0" />
  </g>
</svg>
