<?xml version="1.0" encoding="UTF-8" standalone="no"?>
<!-- Created with Inkscape (http://www.inkscape.org/) -->

<svg
   xmlns:osb="http://www.openswatchbook.org/uri/2009/osb"
   xmlns:dc="http://purl.org/dc/elements/1.1/"
   xmlns:cc="http://creativecommons.org/ns#"
   xmlns:rdf="http://www.w3.org/1999/02/22-rdf-syntax-ns#"
   xmlns:svg="http://www.w3.org/2000/svg"
   xmlns="http://www.w3.org/2000/svg"
   xmlns:sodipodi="http://sodipodi.sourceforge.net/DTD/sodipodi-0.dtd"
   xmlns:inkscape="http://www.inkscape.org/namespaces/inkscape"
   width="530.93201"
   height="100.66821"
   viewBox="0 0 140.47576 26.635132"
   version="1.1"
   id="svg8284"
   inkscape:version="0.92.2 (5c3e80d, 2017-08-06)"
   sodipodi:docname="logotype.svg">
  <title
     id="title9089">Logotype de Construo</title>
  <defs
     id="defs8278">
    <inkscape:path-effect
       effect="bend_path"
       id="path-effect1009"
       is_visible="true"
       bendpath="M 45.99176,120.7453 H 184.41984"
       prop_scale="1"
       scale_y_rel="false"
       vertical="false" />
    <linearGradient
       id="linearGradient8839"
       osb:paint="solid">
      <stop
         style="stop-color:#000000;stop-opacity:1;"
         offset="0"
         id="stop8837" />
    </linearGradient>
  </defs>
  <sodipodi:namedview
     id="base"
     pagecolor="#ffffff"
     bordercolor="#666666"
     borderopacity="1.0"
     inkscape:pageopacity="0.0"
     inkscape:pageshadow="2"
     inkscape:zoom="1"
     inkscape:cx="189.79143"
     inkscape:cy="-54.428589"
     inkscape:document-units="px"
     inkscape:current-layer="g9087"
     showgrid="true"
     units="px"
     fit-margin-top="0"
     fit-margin-left="0"
     fit-margin-right="0"
     fit-margin-bottom="0"
     inkscape:window-width="1920"
     inkscape:window-height="1027"
     inkscape:window-x="-8"
     inkscape:window-y="-8"
     inkscape:window-maximized="1">
    <inkscape:grid
       type="xygrid"
       id="grid8286"
       originx="-44.632494"
       originy="-162.56757" />
  </sodipodi:namedview>
  <metadata
     id="metadata8281">
    <rdf:RDF>
      <cc:Work
         rdf:about="">
        <dc:format>image/svg+xml</dc:format>
        <dc:type
           rdf:resource="http://purl.org/dc/dcmitype/StillImage" />
        <dc:title>Logotype de Construo</dc:title>
        <cc:license
           rdf:resource="http://creativecommons.org/licenses/by-sa/4.0/" />
        <dc:contributor>
          <cc:Agent>
            <dc:title />
          </cc:Agent>
        </dc:contributor>
        <dc:date />
        <dc:creator>
          <cc:Agent>
            <dc:title>Construo</dc:title>
          </cc:Agent>
        </dc:creator>
        <dc:publisher>
          <cc:Agent>
            <dc:title>Construo</dc:title>
          </cc:Agent>
        </dc:publisher>
        <dc:language>Français (fr)</dc:language>
        <dc:subject>
          <rdf:Bag>
            <rdf:li>construo</rdf:li>
            <rdf:li>elvéotie</rdf:li>
          </rdf:Bag>
        </dc:subject>
        <dc:coverage>Francovie</dc:coverage>
        <dc:description>Logotype de l'entreprise de BTP elvéotique Construo.</dc:description>
      </cc:Work>
      <cc:License
         rdf:about="http://creativecommons.org/licenses/by-sa/4.0/">
        <cc:permits
           rdf:resource="http://creativecommons.org/ns#Reproduction" />
        <cc:permits
           rdf:resource="http://creativecommons.org/ns#Distribution" />
        <cc:requires
           rdf:resource="http://creativecommons.org/ns#Notice" />
        <cc:requires
           rdf:resource="http://creativecommons.org/ns#Attribution" />
        <cc:permits
           rdf:resource="http://creativecommons.org/ns#DerivativeWorks" />
        <cc:requires
           rdf:resource="http://creativecommons.org/ns#ShareAlike" />
      </cc:License>
    </rdf:RDF>
  </metadata>
  <g
     inkscape:label="Calque 1"
     inkscape:groupmode="layer"
     id="layer1"
     transform="translate(-44.632494,-107.79729)">
    <g
       id="g9087"
       transform="matrix(0.99544737,0,0,0.97174968,0.18906772,3.7806587)">
      <path
         inkscape:connector-curvature="0"
         id="rect8292"
         d="m 65.7672,108.38564 h 98.87721 c 10.9556,0 19.77543,5.51242 19.77543,12.35966 0,6.84723 -8.81983,12.35965 -19.77543,12.35965 H 65.7672 c -10.955595,0 -19.77544,-5.51242 -19.77544,-12.35965 0,-6.84724 8.819845,-12.35966 19.77544,-12.35966 z"
         style="fill:none;fill-opacity:1;stroke:#000000;stroke-width:2.69014764;stroke-linecap:butt;stroke-linejoin:round;stroke-miterlimit:4;stroke-dasharray:none;stroke-opacity:1;paint-order:normal" />
      <g
         transform="matrix(1.8685456,0,0,1.8685456,-57.829284,-90.614447)"
         id="text8290"
         style="font-style:normal;font-variant:normal;font-weight:normal;font-stretch:normal;font-size:10.58333302px;line-height:1.25;font-family:Audiowide;-inkscape-font-specification:Audiowide;letter-spacing:0px;word-spacing:0px;fill:#ffcc00;fill-opacity:1;stroke:#000000;stroke-width:0.43191043;stroke-miterlimit:4;stroke-dasharray:none;stroke-opacity:1"
         aria-label="CONSTRUO">
        <path
           inkscape:connector-curvature="0"
           id="path8945"
           style="font-style:normal;font-variant:normal;font-weight:bold;font-stretch:normal;font-family:'Copperplate Gothic Bold';-inkscape-font-specification:'Copperplate Gothic Bold, Bold';fill:#ffcc00;fill-opacity:1;stroke:#000000;stroke-width:0.43191043;stroke-miterlimit:4;stroke-dasharray:none;stroke-opacity:1"
           d="m 66.034721,114.39512 0.981852,1.47277 -0.134358,0.093 q -0.144694,-0.13436 -0.237712,-0.13436 -0.09302,0 -0.521932,0.24805 -0.888835,0.5116 -1.498616,0.69246 -0.604615,0.1757 -1.441773,0.1757 -1.669149,0 -2.738851,-0.79065 -0.630452,-0.45992 -0.992187,-1.14204 -0.418579,-0.78032 -0.418579,-1.72083 0,-1.28157 0.749308,-2.22725 1.126546,-1.42111 3.405477,-1.42111 0.837158,0 1.436605,0.1757 0.599446,0.1757 1.498616,0.69247 0.428914,0.24288 0.521932,0.24288 0.09302,0 0.237712,-0.13436 l 0.134358,0.093 -0.981852,1.47278 -0.139526,-0.093 q 0.01033,-0.0827 0.01033,-0.13953 0,-0.14986 -0.129191,-0.27905 -0.129191,-0.13436 -0.45992,-0.3204 -0.914673,-0.51676 -1.937866,-0.51676 -1.209229,0 -1.927531,0.60461 -0.847494,0.70797 -0.847494,1.85002 0,1.14205 0.847494,1.85002 0.718302,0.60461 1.927531,0.60461 1.023193,0 1.937866,-0.51676 0.330729,-0.18604 0.45992,-0.31523 0.129191,-0.13436 0.129191,-0.28422 0,-0.0568 -0.01033,-0.13436 z" />
        <path
           inkscape:connector-curvature="0"
           id="path8947"
           style="font-style:normal;font-variant:normal;font-weight:bold;font-stretch:normal;font-family:'Copperplate Gothic Bold';-inkscape-font-specification:'Copperplate Gothic Bold, Bold';fill:#ffcc00;fill-opacity:1;stroke:#000000;stroke-width:0.43191043;stroke-miterlimit:4;stroke-dasharray:none;stroke-opacity:1"
           d="m 71.755302,109.64088 q 1.844849,0 2.924886,0.99736 1.142049,1.04386 1.142049,2.69751 0,1.01286 -0.54777,1.89136 -1.069702,1.71565 -3.508829,1.71565 -1.829346,0 -2.909383,-0.99735 -0.578776,-0.53227 -0.8785,-1.27641 -0.26355,-0.65629 -0.26355,-1.37976 0,-1.05937 0.542603,-1.93787 1.038696,-1.67948 3.498494,-1.71049 z m 0.0052,1.19373 q -1.00769,0 -1.679484,0.59945 -0.795817,0.70796 -0.795817,1.85518 0,1.14722 0.795817,1.85518 0.671794,0.59945 1.689819,0.59945 1.018026,0 1.684652,-0.59945 0.397908,-0.35656 0.609782,-0.87333 0.186035,-0.45992 0.186035,-0.95084 0,-1.1989 -0.795817,-1.88619 -0.676961,-0.58911 -1.694987,-0.59945 z" />
        <path
           inkscape:connector-curvature="0"
           id="path8949"
           style="font-style:normal;font-variant:normal;font-weight:bold;font-stretch:normal;font-family:'Copperplate Gothic Bold';-inkscape-font-specification:'Copperplate Gothic Bold, Bold';fill:#ffcc00;fill-opacity:1;stroke:#000000;stroke-width:0.43191043;stroke-miterlimit:4;stroke-dasharray:none;stroke-opacity:1"
           d="m 78.674777,111.98699 v 4.28915 q 0,0.1602 0.07235,0.24288 0.07235,0.0827 0.258382,0.13436 v 0.16536 h -2.072225 v -0.16536 q 0.186035,-0.0517 0.258382,-0.13436 0.07235,-0.0827 0.07235,-0.24288 v -5.9738 q 0,-0.15503 -0.07235,-0.23771 -0.07235,-0.0827 -0.258382,-0.13436 v -0.16536 h 2.397786 v 0.16536 q -0.222208,0.0569 -0.222208,0.23771 0,0.12403 0.144694,0.27389 l 3.891235,4.04626 v -4.18579 q 0,-0.15503 -0.07235,-0.23771 -0.07235,-0.0827 -0.258382,-0.13436 v -0.16536 h 2.072225 v 0.16536 q -0.186036,0.0517 -0.258383,0.13436 -0.07235,0.0827 -0.07235,0.23771 v 5.9738 q 0,0.1602 0.07235,0.24288 0.07235,0.0827 0.258383,0.13436 v 0.16536 h -2.222087 v -0.16536 q 0.217041,-0.0465 0.217041,-0.22221 0,-0.10336 -0.253214,-0.36174 z" />
        <path
           inkscape:connector-curvature="0"
           id="path8951"
           style="font-style:normal;font-variant:normal;font-weight:bold;font-stretch:normal;font-family:'Copperplate Gothic Bold';-inkscape-font-specification:'Copperplate Gothic Bold, Bold';fill:#ffcc00;fill-opacity:1;stroke:#000000;stroke-width:0.43191043;stroke-miterlimit:4;stroke-dasharray:none;stroke-opacity:1"
           d="m 92.715262,110.35919 -0.842326,1.65881 -0.144694,-0.0827 q 0.0052,-0.0517 0.0052,-0.0827 0,-0.1757 -0.299724,-0.37724 -0.91984,-0.64079 -2.160074,-0.64079 -0.547771,0 -0.96635,0.13436 -0.304891,0.10335 -0.496093,0.31006 -0.186036,0.2067 -0.186036,0.44958 0,0.39791 0.480591,0.5426 0.248047,0.0724 1.064535,0.15503 l 0.81132,0.0827 q 0.72347,0.0775 1.167887,0.21187 0.449585,0.13436 0.795817,0.37724 0.3514,0.25321 0.552938,0.66662 0.206706,0.41342 0.206706,0.88367 0,0.74414 -0.480591,1.32292 -0.434082,0.5271 -1.348755,0.78031 -0.682129,0.1912 -1.462443,0.1912 -1.400431,0 -2.764689,-0.67179 -0.289388,-0.13436 -0.346232,-0.13436 -0.06718,0 -0.211874,0.11369 l -0.149861,-0.0775 0.764811,-1.73116 0.149862,0.0723 q 0,0.0465 0,0.0672 0,0.23255 0.222208,0.42892 0.335897,0.29972 1.038697,0.51676 0.702799,0.21704 1.333251,0.21704 0.687297,0 1.173055,-0.23254 0.268718,-0.12919 0.428915,-0.34107 0.160197,-0.21704 0.160197,-0.44958 0,-0.3514 -0.377238,-0.50126 -0.26355,-0.10336 -1.064535,-0.19121 l -0.795817,-0.0827 q -0.800984,-0.0827 -1.131714,-0.15503 -0.330729,-0.0775 -0.661458,-0.24288 -0.470255,-0.23254 -0.738973,-0.69763 -0.242879,-0.41858 -0.242879,-0.96118 0,-0.894 0.614949,-1.47795 0.806153,-0.76998 2.418457,-0.76998 0.676962,0 1.260905,0.13953 0.583944,0.13436 1.457276,0.50126 0.299723,0.11886 0.366902,0.11886 0.108521,0 0.253215,-0.11886 z" />
        <path
           inkscape:connector-curvature="0"
           id="path8953"
           style="font-style:normal;font-variant:normal;font-weight:bold;font-stretch:normal;font-family:'Copperplate Gothic Bold';-inkscape-font-specification:'Copperplate Gothic Bold, Bold';fill:#ffcc00;fill-opacity:1;stroke:#000000;stroke-width:0.43191043;stroke-miterlimit:4;stroke-dasharray:none;stroke-opacity:1"
           d="m 97.691704,110.92763 v 5.34851 q 0,0.1602 0.07235,0.24288 0.07235,0.0827 0.258382,0.13436 v 0.16536 H 95.82102 v -0.16536 q 0.186035,-0.0517 0.258382,-0.13436 0.07235,-0.0827 0.07235,-0.24288 v -5.34851 h -2.191081 q -0.155029,0 -0.237711,0.0723 -0.08268,0.0672 -0.134359,0.25322 H 93.42323 v -1.82418 h 0.165365 q 0.05684,0.1912 0.134359,0.26355 0.08268,0.0724 0.237711,0.0724 h 5.916952 q 0.160193,0 0.242883,-0.0724 0.0827,-0.0724 0.13435,-0.26355 h 0.16537 v 1.82418 h -0.16537 q -0.0517,-0.18604 -0.13435,-0.25322 -0.0827,-0.0723 -0.242883,-0.0723 z" />
        <path
           inkscape:connector-curvature="0"
           id="path8955"
           style="font-style:normal;font-variant:normal;font-weight:bold;font-stretch:normal;font-family:'Copperplate Gothic Bold';-inkscape-font-specification:'Copperplate Gothic Bold, Bold';fill:#ffcc00;fill-opacity:1;stroke:#000000;stroke-width:0.43191043;stroke-miterlimit:4;stroke-dasharray:none;stroke-opacity:1"
           d="m 102.98854,113.94036 v 2.34095 q 0,0.15503 0.0724,0.24288 0.0775,0.0827 0.25838,0.12919 v 0.16536 h -2.20142 v -0.16536 q 0.18604,-0.0517 0.25838,-0.13436 0.0724,-0.0827 0.0724,-0.23771 v -5.9738 q 0,-0.1602 -0.0724,-0.24288 -0.0723,-0.0827 -0.25838,-0.13436 v -0.16536 h 4.41317 q 0.80615,0 1.27641,0.093 0.47542,0.093 0.82682,0.32556 0.40824,0.26871 0.60978,0.72863 0.1912,0.44442 0.1912,0.95085 0,1.72599 -1.91719,2.02055 l 1.36942,1.9482 q 0.36174,0.5116 0.5271,0.66146 0.17054,0.14469 0.41341,0.1602 v 0.16536 h -2.55281 v -0.16536 q 0.26355,-0.0413 0.26355,-0.18604 0,-0.093 -0.24288,-0.44958 l -1.42627,-2.0774 z m 0,-1.16272 h 2.37711 q 0.5271,0 0.74414,-0.031 0.21705,-0.031 0.39791,-0.12919 0.39274,-0.21188 0.39274,-0.76481 0,-0.55294 -0.39274,-0.76482 -0.18603,-0.10335 -0.39791,-0.12919 -0.2067,-0.031 -0.74414,-0.031 h -2.37711 z" />
        <path
           inkscape:connector-curvature="0"
           id="path8957"
           style="font-style:normal;font-variant:normal;font-weight:bold;font-stretch:normal;font-family:'Copperplate Gothic Bold';-inkscape-font-specification:'Copperplate Gothic Bold, Bold';fill:#ffcc00;fill-opacity:1;stroke:#000000;stroke-width:0.43191043;stroke-miterlimit:4;stroke-dasharray:none;stroke-opacity:1"
           d="m 116.77064,110.30751 v 3.95325 q 0,1.12138 -0.41341,1.67948 -0.74414,1.00252 -3.07475,1.00252 -1.68465,0 -2.57865,-0.5426 -0.52193,-0.31522 -0.72347,-0.85783 -0.19637,-0.53743 -0.19637,-1.28157 v -3.95325 q 0,-0.1602 -0.0724,-0.24288 -0.0724,-0.0827 -0.25838,-0.13436 v -0.16536 h 2.20658 v 0.16536 q -0.18603,0.0465 -0.26355,0.13436 -0.0723,0.0827 -0.0723,0.24288 v 3.51917 q 0,0.60978 0.0672,0.90433 0.0672,0.28939 0.25322,0.48576 0.49609,0.5271 1.69499,0.5271 1.20406,0 1.70015,-0.5271 0.18087,-0.19637 0.24805,-0.48576 0.0672,-0.29455 0.0672,-0.90433 v -3.51917 q 0,-0.1602 -0.0724,-0.24288 -0.0724,-0.0827 -0.25838,-0.13436 v -0.16536 h 2.07739 v 0.16536 q -0.18603,0.0517 -0.25838,0.13436 -0.0724,0.0827 -0.0724,0.24288 z" />
        <path
           inkscape:connector-curvature="0"
           id="path8959"
           style="font-style:normal;font-variant:normal;font-weight:bold;font-stretch:normal;font-family:'Copperplate Gothic Bold';-inkscape-font-specification:'Copperplate Gothic Bold, Bold';fill:#ffcc00;fill-opacity:1;stroke:#000000;stroke-width:0.43191043;stroke-miterlimit:4;stroke-dasharray:none;stroke-opacity:1"
           d="m 122.10881,109.64088 q 1.84485,0 2.92489,0.99736 1.14205,1.04386 1.14205,2.69751 0,1.01286 -0.54777,1.89136 -1.0697,1.71565 -3.50883,1.71565 -1.82935,0 -2.90938,-0.99735 -0.57878,-0.53227 -0.8785,-1.27641 -0.26355,-0.65629 -0.26355,-1.37976 0,-1.05937 0.5426,-1.93787 1.0387,-1.67948 3.49849,-1.71049 z m 0.005,1.19373 q -1.00769,0 -1.67948,0.59945 -0.79582,0.70796 -0.79582,1.85518 0,1.14722 0.79582,1.85518 0.67179,0.59945 1.68982,0.59945 1.01802,0 1.68465,-0.59945 0.39791,-0.35656 0.60978,-0.87333 0.18604,-0.45992 0.18604,-0.95084 0,-1.1989 -0.79582,-1.88619 -0.67696,-0.58911 -1.69499,-0.59945 z" />
      </g>
    </g>
  </g>
</svg>
