<?xml version="1.0" standalone="no"?><!-- Generator: Gravit.io --><svg xmlns="http://www.w3.org/2000/svg" xmlns:xlink="http://www.w3.org/1999/xlink" style="isolation:isolate" viewBox="146 208.1513671875 453.04296875 61" width="453.04296875" height="61"><path d=" M 232.0263671875 239.748046875 Q 234.4287109375 239.748046875 237.197265625 240.5830078125 L 236.3916015625 242.853515625 Q 233.7548828125 242.091796875 231.8212890625 242.091796875 Q 229.6533203125 242.091796875 228.15185546875 243.00732421875 Q 226.650390625 243.9228515625 226.650390625 245.373046875 Q 226.650390625 246.1787109375 227.1337890625 246.80859375 Q 227.6171875 247.4384765625 228.408203125 247.833984375 Q 229.19921875 248.2294921875 230.2099609375 248.61767578125 Q 231.220703125 249.005859375 232.26806640625 249.328125 Q 233.3154296875 249.650390625 234.326171875 250.1484375 Q 235.3369140625 250.646484375 236.1279296875 251.23974609375 Q 236.9189453125 251.8330078125 237.40234375 252.78515625 Q 237.8857421875 253.7373046875 237.8857421875 254.9384765625 Q 237.8857421875 255.7734375 237.6220703125 256.60107421875 Q 237.3583984375 257.4287109375 236.7431640625 258.24169921875 Q 236.1279296875 259.0546875 235.2197265625 259.669921875 Q 234.3115234375 260.28515625 232.92724609375 260.666015625 Q 231.54296875 261.046875 229.84375 261.046875 Q 228.14453125 261.046875 226.71630859375 260.6953125 Q 225.2880859375 260.34375 223.515625 259.640625 L 224.365234375 257.2236328125 Q 228.02734375 258.5859375 230.1513671875 258.5859375 Q 232.3779296875 258.5859375 233.77685546875 257.6923828125 Q 235.17578125 256.798828125 235.17578125 255.3046875 Q 235.17578125 254.30859375 234.55322265625 253.58349609375 Q 233.9306640625 252.8583984375 232.94189453125 252.41162109375 Q 231.953125 251.96484375 230.751953125 251.57666015625 Q 229.55078125 251.1884765625 228.35693359375 250.74169921875 Q 227.1630859375 250.294921875 226.17431640625 249.708984375 Q 225.185546875 249.123046875 224.56298828125 248.126953125 Q 223.9404296875 247.130859375 223.9404296875 245.783203125 Q 223.9404296875 244.58203125 224.51904296875 243.4833984375 Q 225.09765625 242.384765625 226.123046875 241.55712890625 Q 227.1484375 240.7294921875 228.6865234375 240.23876953125 Q 230.224609375 239.748046875 232.0263671875 239.748046875 Z  M 241.8408203125 253.8544921875 Q 241.8408203125 252.140625 242.2509765625 250.77099609375 Q 242.6611328125 249.4013671875 243.34228515625 248.52978515625 Q 244.0234375 247.658203125 244.9462890625 247.07958984375 Q 245.869140625 246.5009765625 246.8359375 246.25927734375 Q 247.802734375 246.017578125 248.857421875 246.017578125 Q 250.9375 246.017578125 252.9150390625 246.8818359375 L 252.3291015625 248.6396484375 Q 250.703125 248.0830078125 249.150390625 248.0830078125 Q 248.388671875 248.0830078125 247.71484375 248.22216796875 Q 247.041015625 248.361328125 246.37451171875 248.7275390625 Q 245.7080078125 249.09375 245.23193359375 249.67236328125 Q 244.755859375 250.2509765625 244.462890625 251.1884765625 Q 244.169921875 252.1259765625 244.169921875 253.341796875 Q 244.169921875 254.6748046875 244.4775390625 255.69287109375 Q 244.78515625 256.7109375 245.283203125 257.3408203125 Q 245.78125 257.970703125 246.47705078125 258.3662109375 Q 247.1728515625 258.76171875 247.88330078125 258.91552734375 Q 248.59375 259.0693359375 249.4140625 259.0693359375 Q 250.791015625 259.0693359375 252.16796875 258.5859375 L 252.75390625 260.2412109375 Q 250.673828125 261.046875 248.5791015625 261.046875 Q 247.6123046875 261.046875 246.72607421875 260.8564453125 Q 245.83984375 260.666015625 244.92431640625 260.16064453125 Q 244.0087890625 259.6552734375 243.34228515625 258.87890625 Q 242.67578125 258.1025390625 242.25830078125 256.80615234375 Q 241.8408203125 255.509765625 241.8408203125 253.8544921875 Z  M 263.65234375 248.15625 Q 261.9384765625 248.15625 259.78515625 249.2841796875 L 259.78515625 260.75390625 L 257.3828125 260.75390625 L 257.3828125 238.6201171875 L 259.78515625 238.6201171875 L 259.78515625 247.3798828125 Q 262.3486328125 246.017578125 264.58984375 246.017578125 Q 265.556640625 246.017578125 266.32568359375 246.2666015625 Q 267.0947265625 246.515625 267.5927734375 246.88916015625 Q 268.0908203125 247.2626953125 268.44970703125 247.85595703125 Q 268.80859375 248.44921875 268.99169921875 248.96923828125 Q 269.1748046875 249.4892578125 269.27001953125 250.20703125 Q 269.365234375 250.9248046875 269.38720703125 251.37890625 Q 269.4091796875 251.8330078125 269.4091796875 252.4482421875 L 269.4091796875 260.75390625 L 266.9482421875 260.75390625 L 266.9482421875 252.0087890625 Q 266.9482421875 248.15625 263.65234375 248.15625 Z  M 272.9248046875 246.28125 L 275.48828125 246.28125 L 279.4140625 258.4248046875 L 283.134765625 246.28125 L 285.4931640625 246.28125 L 289.3603515625 258.41015625 L 293.2861328125 246.28125 L 295.849609375 246.28125 L 290.5615234375 260.75390625 L 288.14453125 260.75390625 L 284.2919921875 249.0205078125 L 280.4833984375 260.75390625 L 278.06640625 260.75390625 L 272.9248046875 246.28125 Z  M 297.4609375 246.28125 L 300.09765625 246.28125 L 304.7265625 258.556640625 L 309.033203125 246.28125 L 311.5234375 246.28125 L 303.173828125 268.5322265625 L 300.6103515625 268.5322265625 L 303.5107421875 261.4716796875 L 297.4609375 246.28125 Z  M 322.5830078125 260.5048828125 Q 320.458984375 261.046875 319.2724609375 261.046875 Q 318.0859375 261.046875 317.265625 260.666015625 Q 316.4453125 260.28515625 316.0205078125 259.58203125 Q 315.595703125 258.87890625 315.41259765625 258.06591796875 Q 315.2294921875 257.2529296875 315.2294921875 256.1982421875 L 315.2294921875 248.1708984375 L 313.28125 248.1708984375 L 313.28125 246.28125 L 315.2294921875 246.28125 L 315.2294921875 242.1357421875 L 317.6318359375 242.1357421875 L 317.6318359375 246.28125 L 322.041015625 246.28125 L 322.041015625 248.1708984375 L 317.6318359375 248.1708984375 L 317.6318359375 256.1689453125 Q 317.6318359375 259.171875 320.0048828125 259.171875 Q 320.4296875 259.171875 322.24609375 258.8642578125 L 322.5830078125 260.5048828125 Z  M 332.470703125 246.0029296875 Q 333.525390625 246.0029296875 334.36767578125 246.25927734375 Q 335.2099609375 246.515625 335.7666015625 246.9111328125 Q 336.3232421875 247.306640625 336.72607421875 247.94384765625 Q 337.12890625 248.5810546875 337.34130859375 249.17431640625 Q 337.5537109375 249.767578125 337.6708984375 250.6025390625 Q 337.7880859375 251.4375 337.8173828125 252.052734375 Q 337.8466796875 252.66796875 337.8466796875 253.5029296875 L 337.8466796875 254.6455078125 L 327.900390625 254.6455078125 Q 327.900390625 255.4365234375 328.25927734375 256.22021484375 Q 328.6181640625 257.00390625 329.27001953125 257.65576171875 Q 329.921875 258.3076171875 330.98388671875 258.7177734375 Q 332.0458984375 259.1279296875 333.3349609375 259.1279296875 Q 334.8583984375 259.1279296875 336.630859375 258.6005859375 L 337.0556640625 260.2412109375 Q 334.697265625 261.046875 332.4267578125 261.046875 Q 330.830078125 261.046875 329.59228515625 260.6220703125 Q 328.3544921875 260.197265625 327.60009765625 259.51611328125 Q 326.845703125 258.8349609375 326.3623046875 257.8828125 Q 325.87890625 256.9306640625 325.69580078125 255.98583984375 Q 325.5126953125 255.041015625 325.5126953125 253.986328125 Q 325.5126953125 252.3603515625 325.908203125 251.0126953125 Q 326.3037109375 249.6650390625 326.9775390625 248.74951171875 Q 327.6513671875 247.833984375 328.55224609375 247.2041015625 Q 329.453125 246.57421875 330.44189453125 246.28857421875 Q 331.4306640625 246.0029296875 332.470703125 246.0029296875 Z  M 331.9580078125 248.0830078125 Q 330.6689453125 248.0830078125 329.73876953125 248.79345703125 Q 328.80859375 249.50390625 328.3837890625 250.55859375 Q 327.958984375 251.61328125 327.958984375 252.8291015625 L 335.517578125 252.8291015625 Q 335.517578125 248.0830078125 331.9580078125 248.0830078125 Z  M 344.5263671875 247.365234375 Q 346.357421875 246.0029296875 348.5693359375 246.0029296875 Q 350.0927734375 246.0029296875 351.337890625 246.57421875 L 350.60546875 248.4931640625 Q 349.462890625 248.0537109375 348.232421875 248.0537109375 Q 346.4013671875 248.0537109375 344.7900390625 249.064453125 L 344.7900390625 260.75390625 L 342.3876953125 260.75390625 L 342.3876953125 246.28125 L 344.072265625 246.28125 L 344.5263671875 247.365234375 Z  M 361.8115234375 260.5048828125 Q 359.6875 261.046875 358.5009765625 261.046875 Q 357.314453125 261.046875 356.494140625 260.666015625 Q 355.673828125 260.28515625 355.2490234375 259.58203125 Q 354.82421875 258.87890625 354.64111328125 258.06591796875 Q 354.4580078125 257.2529296875 354.4580078125 256.1982421875 L 354.4580078125 248.1708984375 L 352.509765625 248.1708984375 L 352.509765625 246.28125 L 354.4580078125 246.28125 L 354.4580078125 242.1357421875 L 356.8603515625 242.1357421875 L 356.8603515625 246.28125 L 361.26953125 246.28125 L 361.26953125 248.1708984375 L 356.8603515625 248.1708984375 L 356.8603515625 256.1689453125 Q 356.8603515625 259.171875 359.2333984375 259.171875 Q 359.658203125 259.171875 361.474609375 258.8642578125 L 361.8115234375 260.5048828125 Z  M 371.8896484375 248.15625 Q 370.17578125 248.15625 368.0224609375 249.2841796875 L 368.0224609375 260.75390625 L 365.6201171875 260.75390625 L 365.6201171875 238.6201171875 L 368.0224609375 238.6201171875 L 368.0224609375 247.3798828125 Q 370.5859375 246.017578125 372.8271484375 246.017578125 Q 373.7939453125 246.017578125 374.56298828125 246.2666015625 Q 375.33203125 246.515625 375.830078125 246.88916015625 Q 376.328125 247.2626953125 376.68701171875 247.85595703125 Q 377.0458984375 248.44921875 377.22900390625 248.96923828125 Q 377.412109375 249.4892578125 377.50732421875 250.20703125 Q 377.6025390625 250.9248046875 377.62451171875 251.37890625 Q 377.646484375 251.8330078125 377.646484375 252.4482421875 L 377.646484375 260.75390625 L 375.185546875 260.75390625 L 375.185546875 252.0087890625 Q 375.185546875 248.15625 371.8896484375 248.15625 Z  M 392.4853515625 246.28125 L 394.8876953125 246.28125 L 394.8876953125 260.75390625 L 393.203125 260.75390625 L 392.6904296875 259.5380859375 Q 389.921875 261.046875 387.578125 261.046875 Q 386.3916015625 261.046875 385.5126953125 260.67333984375 Q 384.6337890625 260.2998046875 384.150390625 259.7431640625 Q 383.6669921875 259.1865234375 383.3740234375 258.32958984375 Q 383.0810546875 257.47265625 383.00048828125 256.6962890625 Q 382.919921875 255.919921875 382.919921875 254.923828125 L 382.919921875 246.28125 L 385.322265625 246.28125 L 385.322265625 255.099609375 Q 385.322265625 258.8935546875 388.6181640625 258.8935546875 Q 390.3173828125 258.8935546875 392.4853515625 257.765625 L 392.4853515625 246.28125 Z  M 384.326171875 239.9384765625 L 387.0361328125 239.9384765625 L 387.0361328125 242.6630859375 L 384.326171875 242.6630859375 L 384.326171875 239.9384765625 Z  M 390.888671875 239.9384765625 L 393.5986328125 239.9384765625 L 393.5986328125 242.6630859375 L 390.888671875 242.6630859375 L 390.888671875 239.9384765625 Z  M 402.2998046875 247.365234375 Q 404.130859375 246.0029296875 406.3427734375 246.0029296875 Q 407.8662109375 246.0029296875 409.111328125 246.57421875 L 408.37890625 248.4931640625 Q 407.236328125 248.0537109375 406.005859375 248.0537109375 Q 404.1748046875 248.0537109375 402.5634765625 249.064453125 L 402.5634765625 260.75390625 L 400.1611328125 260.75390625 L 400.1611328125 246.28125 L 401.845703125 246.28125 L 402.2998046875 247.365234375 Z  M 421.708984375 239.9384765625 L 424.19921875 239.9384765625 L 424.19921875 260.75390625 L 421.708984375 260.75390625 L 421.708984375 239.9384765625 Z  M 433.369140625 239.9384765625 L 436.4892578125 239.9384765625 L 427.685546875 249.8701171875 L 437.0458984375 260.75390625 L 433.837890625 260.75390625 L 424.55078125 250.0751953125 L 433.369140625 239.9384765625 Z  M 445.64453125 246.0029296875 Q 447.255859375 246.0029296875 448.37646484375 246.37646484375 Q 449.4970703125 246.75 450.10498046875 247.4677734375 Q 450.712890625 248.185546875 450.9765625 249.064453125 Q 451.240234375 249.943359375 451.240234375 251.0859375 L 451.240234375 260.75390625 L 449.541015625 260.75390625 L 448.984375 259.435546875 Q 447.2119140625 261.046875 444.912109375 261.046875 Q 442.861328125 261.046875 441.4404296875 259.80908203125 Q 440.01953125 258.5712890625 440.01953125 256.916015625 Q 440.01953125 256.037109375 440.341796875 255.333984375 Q 440.6640625 254.630859375 441.27197265625 254.162109375 Q 441.8798828125 253.693359375 442.65625 253.36376953125 Q 443.4326171875 253.0341796875 444.46533203125 252.8583984375 Q 445.498046875 252.6826171875 446.5380859375 252.609375 Q 447.578125 252.5361328125 448.8232421875 252.5361328125 L 448.8232421875 251.3935546875 Q 448.8232421875 250.8955078125 448.78662109375 250.529296875 Q 448.75 250.1630859375 448.544921875 249.650390625 Q 448.33984375 249.1376953125 447.98828125 248.80810546875 Q 447.63671875 248.478515625 446.93359375 248.23681640625 Q 446.23046875 247.9951171875 445.263671875 247.9951171875 Q 443.76953125 247.9951171875 441.396484375 248.654296875 L 440.9423828125 246.896484375 Q 443.3447265625 246.0029296875 445.64453125 246.0029296875 Z  M 448.8232421875 254.3525390625 L 447.9296875 254.3525390625 Q 447.0947265625 254.3525390625 446.4794921875 254.3818359375 Q 445.8642578125 254.4111328125 445.03662109375 254.55029296875 Q 444.208984375 254.689453125 443.681640625 254.9384765625 Q 443.154296875 255.1875 442.78076171875 255.66357421875 Q 442.4072265625 256.1396484375 442.4072265625 256.798828125 Q 442.4072265625 257.7216796875 443.33740234375 258.439453125 Q 444.267578125 259.1572265625 445.556640625 259.1572265625 Q 447.4462890625 259.1572265625 448.8232421875 257.677734375 L 448.8232421875 254.3525390625 Z  M 456.513671875 246.28125 L 458.1982421875 246.28125 L 458.7255859375 247.51171875 Q 461.5234375 245.98828125 463.8232421875 245.98828125 Q 465.009765625 245.98828125 465.888671875 246.36181640625 Q 466.767578125 246.7353515625 467.2509765625 247.29931640625 Q 467.734375 247.86328125 468.02001953125 248.72021484375 Q 468.3056640625 249.5771484375 468.38623046875 250.353515625 Q 468.466796875 251.1298828125 468.466796875 252.1259765625 L 468.466796875 260.75390625 L 466.064453125 260.75390625 L 466.064453125 251.96484375 Q 466.064453125 248.15625 462.783203125 248.15625 Q 461.083984375 248.15625 458.916015625 249.2841796875 L 458.916015625 260.75390625 L 456.513671875 260.75390625 L 456.513671875 246.28125 Z  M 481.4306640625 260.5048828125 Q 479.306640625 261.046875 478.1201171875 261.046875 Q 476.93359375 261.046875 476.11328125 260.666015625 Q 475.29296875 260.28515625 474.8681640625 259.58203125 Q 474.443359375 258.87890625 474.26025390625 258.06591796875 Q 474.0771484375 257.2529296875 474.0771484375 256.1982421875 L 474.0771484375 248.1708984375 L 472.12890625 248.1708984375 L 472.12890625 246.28125 L 474.0771484375 246.28125 L 474.0771484375 242.1357421875 L 476.4794921875 242.1357421875 L 476.4794921875 246.28125 L 480.888671875 246.28125 L 480.888671875 248.1708984375 L 476.4794921875 248.1708984375 L 476.4794921875 256.1689453125 Q 476.4794921875 259.171875 478.8525390625 259.171875 Q 479.27734375 259.171875 481.09375 258.8642578125 L 481.4306640625 260.5048828125 Z  M 489.8828125 246.0029296875 Q 491.494140625 246.0029296875 492.61474609375 246.37646484375 Q 493.7353515625 246.75 494.34326171875 247.4677734375 Q 494.951171875 248.185546875 495.21484375 249.064453125 Q 495.478515625 249.943359375 495.478515625 251.0859375 L 495.478515625 260.75390625 L 493.779296875 260.75390625 L 493.22265625 259.435546875 Q 491.4501953125 261.046875 489.150390625 261.046875 Q 487.099609375 261.046875 485.6787109375 259.80908203125 Q 484.2578125 258.5712890625 484.2578125 256.916015625 Q 484.2578125 256.037109375 484.580078125 255.333984375 Q 484.90234375 254.630859375 485.51025390625 254.162109375 Q 486.1181640625 253.693359375 486.89453125 253.36376953125 Q 487.6708984375 253.0341796875 488.70361328125 252.8583984375 Q 489.736328125 252.6826171875 490.7763671875 252.609375 Q 491.81640625 252.5361328125 493.0615234375 252.5361328125 L 493.0615234375 251.3935546875 Q 493.0615234375 250.8955078125 493.02490234375 250.529296875 Q 492.98828125 250.1630859375 492.783203125 249.650390625 Q 492.578125 249.1376953125 492.2265625 248.80810546875 Q 491.875 248.478515625 491.171875 248.23681640625 Q 490.46875 247.9951171875 489.501953125 247.9951171875 Q 488.0078125 247.9951171875 485.634765625 248.654296875 L 485.1806640625 246.896484375 Q 487.5830078125 246.0029296875 489.8828125 246.0029296875 Z  M 493.0615234375 254.3525390625 L 492.16796875 254.3525390625 Q 491.3330078125 254.3525390625 490.7177734375 254.3818359375 Q 490.1025390625 254.4111328125 489.27490234375 254.55029296875 Q 488.447265625 254.689453125 487.919921875 254.9384765625 Q 487.392578125 255.1875 487.01904296875 255.66357421875 Q 486.6455078125 256.1396484375 486.6455078125 256.798828125 Q 486.6455078125 257.7216796875 487.57568359375 258.439453125 Q 488.505859375 259.1572265625 489.794921875 259.1572265625 Q 491.6845703125 259.1572265625 493.0615234375 257.677734375 L 493.0615234375 254.3525390625 Z  M 500.8984375 238.6201171875 L 503.30078125 238.6201171875 L 503.30078125 246.9697265625 Q 505.1904296875 245.98828125 507.16796875 245.98828125 Q 508.046875 245.98828125 508.896484375 246.20068359375 Q 509.74609375 246.4130859375 510.60302734375 246.94775390625 Q 511.4599609375 247.482421875 512.1044921875 248.2880859375 Q 512.7490234375 249.09375 513.15185546875 250.3974609375 Q 513.5546875 251.701171875 513.5546875 253.341796875 Q 513.5546875 256.916015625 511.65771484375 258.9814453125 Q 509.7607421875 261.046875 506.7431640625 261.046875 Q 504.765625 261.046875 502.861328125 260.080078125 L 502.568359375 260.75390625 L 500.8984375 260.75390625 L 500.8984375 238.6201171875 Z  M 506.34765625 247.98046875 Q 504.7802734375 247.98046875 503.30078125 248.7568359375 L 503.30078125 258.4833984375 Q 504.8681640625 259.1572265625 506.3916015625 259.1572265625 Q 507.0654296875 259.1572265625 507.6953125 259.0107421875 Q 508.3251953125 258.8642578125 508.97705078125 258.47607421875 Q 509.62890625 258.087890625 510.1123046875 257.501953125 Q 510.595703125 256.916015625 510.9033203125 255.94921875 Q 511.2109375 254.982421875 511.2109375 253.7666015625 Q 511.2109375 252.3896484375 510.888671875 251.32763671875 Q 510.56640625 250.265625 510.068359375 249.650390625 Q 509.5703125 249.03515625 508.896484375 248.6396484375 Q 508.22265625 248.244140625 507.607421875 248.1123046875 Q 506.9921875 247.98046875 506.34765625 247.98046875 Z  M 524.306640625 246.0029296875 Q 525.361328125 246.0029296875 526.20361328125 246.25927734375 Q 527.0458984375 246.515625 527.6025390625 246.9111328125 Q 528.1591796875 247.306640625 528.56201171875 247.94384765625 Q 528.96484375 248.5810546875 529.17724609375 249.17431640625 Q 529.3896484375 249.767578125 529.5068359375 250.6025390625 Q 529.6240234375 251.4375 529.6533203125 252.052734375 Q 529.6826171875 252.66796875 529.6826171875 253.5029296875 L 529.6826171875 254.6455078125 L 519.736328125 254.6455078125 Q 519.736328125 255.4365234375 520.09521484375 256.22021484375 Q 520.4541015625 257.00390625 521.10595703125 257.65576171875 Q 521.7578125 258.3076171875 522.81982421875 258.7177734375 Q 523.8818359375 259.1279296875 525.1708984375 259.1279296875 Q 526.6943359375 259.1279296875 528.466796875 258.6005859375 L 528.8916015625 260.2412109375 Q 526.533203125 261.046875 524.2626953125 261.046875 Q 522.666015625 261.046875 521.42822265625 260.6220703125 Q 520.1904296875 260.197265625 519.43603515625 259.51611328125 Q 518.681640625 258.8349609375 518.1982421875 257.8828125 Q 517.71484375 256.9306640625 517.53173828125 255.98583984375 Q 517.3486328125 255.041015625 517.3486328125 253.986328125 Q 517.3486328125 252.3603515625 517.744140625 251.0126953125 Q 518.1396484375 249.6650390625 518.8134765625 248.74951171875 Q 519.4873046875 247.833984375 520.38818359375 247.2041015625 Q 521.2890625 246.57421875 522.27783203125 246.28857421875 Q 523.2666015625 246.0029296875 524.306640625 246.0029296875 Z  M 523.7939453125 248.0830078125 Q 522.5048828125 248.0830078125 521.57470703125 248.79345703125 Q 520.64453125 249.50390625 520.2197265625 250.55859375 Q 519.794921875 251.61328125 519.794921875 252.8291015625 L 527.353515625 252.8291015625 Q 527.353515625 248.0830078125 523.7939453125 248.0830078125 Z  M 536.3623046875 247.365234375 Q 538.193359375 246.0029296875 540.4052734375 246.0029296875 Q 541.9287109375 246.0029296875 543.173828125 246.57421875 L 542.44140625 248.4931640625 Q 541.298828125 248.0537109375 540.068359375 248.0537109375 Q 538.2373046875 248.0537109375 536.6259765625 249.064453125 L 536.6259765625 260.75390625 L 534.2236328125 260.75390625 L 534.2236328125 246.28125 L 535.908203125 246.28125 L 536.3623046875 247.365234375 Z  M 545.7373046875 239.9384765625 L 548.5791015625 239.9384765625 L 548.5791015625 242.70703125 L 545.7373046875 242.70703125 L 545.7373046875 239.9384765625 Z  M 545.95703125 246.28125 L 548.359375 246.28125 L 548.359375 260.75390625 L 545.95703125 260.75390625 L 545.95703125 246.28125 Z  M 553.6328125 238.6201171875 L 556.03515625 238.6201171875 L 556.03515625 260.75390625 L 553.6328125 260.75390625 L 553.6328125 238.6201171875 Z  M 562.65625 245.98828125 L 565.3076171875 245.98828125 L 559.0087890625 252.5068359375 L 565.6884765625 260.75390625 L 562.802734375 260.75390625 L 556.26953125 252.755859375 L 562.65625 245.98828125 Z  M 575.6640625 246.0029296875 Q 578.6669921875 246.0029296875 580.60791015625 247.921875 Q 582.548828125 249.8408203125 582.548828125 253.224609375 Q 582.548828125 256.8134765625 580.56396484375 258.93017578125 Q 578.5791015625 261.046875 575.4296875 261.046875 Q 572.4267578125 261.046875 570.5224609375 259.06201171875 Q 568.6181640625 257.0771484375 568.6181640625 253.6787109375 Q 568.6181640625 250.177734375 570.55908203125 248.09033203125 Q 572.5 246.0029296875 575.6640625 246.0029296875 Z  M 575.458984375 248.0537109375 Q 573.6572265625 248.0537109375 572.3095703125 249.4453125 Q 570.9619140625 250.8369140625 570.9619140625 253.2685546875 Q 570.9619140625 255.685546875 572.2802734375 257.3408203125 Q 573.5986328125 258.99609375 575.693359375 258.99609375 Q 577.626953125 258.99609375 578.916015625 257.53125 Q 580.205078125 256.06640625 580.205078125 253.7080078125 Q 580.205078125 252.3603515625 579.78759765625 251.26171875 Q 579.3701171875 250.1630859375 578.68896484375 249.474609375 Q 578.0078125 248.7861328125 577.1728515625 248.419921875 Q 576.337890625 248.0537109375 575.458984375 248.0537109375 Z  M 571.38671875 239.9384765625 L 574.0966796875 239.9384765625 L 574.0966796875 242.6630859375 L 571.38671875 242.6630859375 L 571.38671875 239.9384765625 Z  M 577.9638671875 239.9384765625 L 580.673828125 239.9384765625 L 580.673828125 242.6630859375 L 577.9638671875 242.6630859375 L 577.9638671875 239.9384765625 Z  M 587.08984375 246.28125 L 588.7744140625 246.28125 L 589.3017578125 247.51171875 Q 592.099609375 245.98828125 594.3994140625 245.98828125 Q 595.5859375 245.98828125 596.46484375 246.36181640625 Q 597.34375 246.7353515625 597.8271484375 247.29931640625 Q 598.310546875 247.86328125 598.59619140625 248.72021484375 Q 598.8818359375 249.5771484375 598.96240234375 250.353515625 Q 599.04296875 251.1298828125 599.04296875 252.1259765625 L 599.04296875 260.75390625 L 596.640625 260.75390625 L 596.640625 251.96484375 Q 596.640625 248.15625 593.359375 248.15625 Q 591.66015625 248.15625 589.4921875 249.2841796875 L 589.4921875 260.75390625 L 587.08984375 260.75390625 L 587.08984375 246.28125 Z " fill-rule="evenodd" fill="rgb(0,0,0)"/><path d=" M 222.83203125 215.4111328125 L 230.966796875 215.4111328125 L 230.966796875 216.8759765625 L 224.4921875 216.8759765625 L 224.4921875 221.4072265625 L 230.4296875 221.4072265625 L 230.4296875 222.8720703125 L 224.4921875 222.8720703125 L 224.4921875 227.8232421875 L 230.966796875 227.8232421875 L 230.966796875 229.2880859375 L 222.83203125 229.2880859375 L 222.83203125 215.4111328125 Z  M 229.296875 210.4501953125 L 229.98046875 211.6513671875 L 224.98046875 214.5322265625 L 224.375 213.4775390625 L 229.296875 210.4501953125 Z  M 233.798828125 224.6884765625 Q 233.798828125 223.5458984375 234.072265625 222.6328125 Q 234.345703125 221.7197265625 234.7998046875 221.138671875 Q 235.25390625 220.5576171875 235.869140625 220.171875 Q 236.484375 219.7861328125 237.12890625 219.625 Q 237.7734375 219.4638671875 238.4765625 219.4638671875 Q 239.86328125 219.4638671875 241.181640625 220.0400390625 L 240.791015625 221.2119140625 Q 239.70703125 220.8408203125 238.671875 220.8408203125 Q 238.1640625 220.8408203125 237.71484375 220.93359375 Q 237.265625 221.0263671875 236.8212890625 221.2705078125 Q 236.376953125 221.5146484375 236.0595703125 221.900390625 Q 235.7421875 222.2861328125 235.546875 222.9111328125 Q 235.3515625 223.5361328125 235.3515625 224.3466796875 Q 235.3515625 225.2353515625 235.556640625 225.9140625 Q 235.76171875 226.5927734375 236.09375 227.0126953125 Q 236.42578125 227.4326171875 236.8896484375 227.6962890625 Q 237.353515625 227.9599609375 237.8271484375 228.0625 Q 238.30078125 228.1650390625 238.84765625 228.1650390625 Q 239.765625 228.1650390625 240.68359375 227.8427734375 L 241.07421875 228.9462890625 Q 239.6875 229.4833984375 238.291015625 229.4833984375 Q 237.646484375 229.4833984375 237.0556640625 229.3564453125 Q 236.46484375 229.2294921875 235.8544921875 228.892578125 Q 235.244140625 228.5556640625 234.7998046875 228.0380859375 Q 234.35546875 227.5205078125 234.0771484375 226.65625 Q 233.798828125 225.7919921875 233.798828125 224.6884765625 Z  M 248.271484375 219.4541015625 Q 250.2734375 219.4541015625 251.5673828125 220.7333984375 Q 252.861328125 222.0126953125 252.861328125 224.2685546875 Q 252.861328125 226.6611328125 251.5380859375 228.072265625 Q 250.21484375 229.4833984375 248.115234375 229.4833984375 Q 246.11328125 229.4833984375 244.84375 228.16015625 Q 243.57421875 226.8369140625 243.57421875 224.5712890625 Q 243.57421875 222.2373046875 244.8681640625 220.845703125 Q 246.162109375 219.4541015625 248.271484375 219.4541015625 Z  M 248.134765625 220.8212890625 Q 246.93359375 220.8212890625 246.03515625 221.7490234375 Q 245.13671875 222.6767578125 245.13671875 224.2978515625 Q 245.13671875 225.9091796875 246.015625 227.0126953125 Q 246.89453125 228.1162109375 248.291015625 228.1162109375 Q 249.580078125 228.1162109375 250.439453125 227.1396484375 Q 251.298828125 226.1630859375 251.298828125 224.5908203125 Q 251.298828125 223.6923828125 251.0205078125 222.9599609375 Q 250.7421875 222.2275390625 250.2880859375 221.7685546875 Q 249.833984375 221.3095703125 249.27734375 221.0654296875 Q 248.720703125 220.8212890625 248.134765625 220.8212890625 Z  M 256.083984375 214.5322265625 L 257.685546875 214.5322265625 L 257.685546875 229.2880859375 L 256.083984375 229.2880859375 L 256.083984375 214.5322265625 Z  M 265.546875 219.4541015625 Q 266.25 219.4541015625 266.8115234375 219.625 Q 267.373046875 219.7958984375 267.744140625 220.0595703125 Q 268.115234375 220.3232421875 268.3837890625 220.748046875 Q 268.65234375 221.1728515625 268.7939453125 221.568359375 Q 268.935546875 221.9638671875 269.013671875 222.5205078125 Q 269.091796875 223.0771484375 269.111328125 223.4873046875 Q 269.130859375 223.8974609375 269.130859375 224.4541015625 L 269.130859375 225.2158203125 L 262.5 225.2158203125 Q 262.5 225.7431640625 262.7392578125 226.265625 Q 262.978515625 226.7880859375 263.4130859375 227.22265625 Q 263.84765625 227.6572265625 264.5556640625 227.9306640625 Q 265.263671875 228.2041015625 266.123046875 228.2041015625 Q 267.138671875 228.2041015625 268.3203125 227.8525390625 L 268.603515625 228.9462890625 Q 267.03125 229.4833984375 265.517578125 229.4833984375 Q 264.453125 229.4833984375 263.6279296875 229.2001953125 Q 262.802734375 228.9169921875 262.2998046875 228.462890625 Q 261.796875 228.0087890625 261.474609375 227.3740234375 Q 261.15234375 226.7392578125 261.0302734375 226.109375 Q 260.908203125 225.4794921875 260.908203125 224.7763671875 Q 260.908203125 223.6923828125 261.171875 222.7939453125 Q 261.435546875 221.8955078125 261.884765625 221.28515625 Q 262.333984375 220.6748046875 262.9345703125 220.2548828125 Q 263.53515625 219.8349609375 264.1943359375 219.64453125 Q 264.853515625 219.4541015625 265.546875 219.4541015625 Z  M 265.205078125 220.8408203125 Q 264.345703125 220.8408203125 263.7255859375 221.314453125 Q 263.10546875 221.7880859375 262.822265625 222.4912109375 Q 262.5390625 223.1943359375 262.5390625 224.0048828125 L 267.578125 224.0048828125 Q 267.578125 220.8408203125 265.205078125 220.8408203125 Z  M 277.138671875 224.6298828125 Q 277.138671875 223.3798828125 277.490234375 222.3837890625 Q 277.841796875 221.3876953125 278.45703125 220.7529296875 Q 279.072265625 220.1181640625 279.8974609375 219.78125 Q 280.72265625 219.4443359375 281.6796875 219.4443359375 Q 282.83203125 219.4443359375 284.013671875 219.9619140625 L 284.013671875 214.5322265625 L 285.615234375 214.5322265625 L 285.615234375 229.2880859375 L 284.501953125 229.2880859375 L 284.23828125 228.6826171875 Q 282.880859375 229.4833984375 281.40625 229.4833984375 Q 280.80078125 229.4833984375 280.224609375 229.3369140625 Q 279.6484375 229.1904296875 279.08203125 228.8291015625 Q 278.515625 228.4677734375 278.0908203125 227.92578125 Q 277.666015625 227.3837890625 277.40234375 226.5341796875 Q 277.138671875 225.6845703125 277.138671875 224.6298828125 Z  M 281.93359375 228.1650390625 Q 282.998046875 228.1650390625 284.013671875 227.6181640625 L 284.013671875 221.1728515625 Q 282.96875 220.7041015625 281.9140625 220.7041015625 Q 281.46484375 220.7041015625 281.044921875 220.8017578125 Q 280.625 220.8994140625 280.185546875 221.1533203125 Q 279.74609375 221.4072265625 279.4287109375 221.8076171875 Q 279.111328125 222.2080078125 278.90625 222.8671875 Q 278.701171875 223.5263671875 278.701171875 224.3759765625 Q 278.701171875 225.2548828125 278.916015625 225.943359375 Q 279.130859375 226.6318359375 279.462890625 227.0419921875 Q 279.794921875 227.4521484375 280.244140625 227.7158203125 Q 280.693359375 227.9794921875 281.103515625 228.072265625 Q 281.513671875 228.1650390625 281.93359375 228.1650390625 Z  M 288.544921875 214.5322265625 L 290.3515625 214.5322265625 L 290.3515625 218.7119140625 L 288.544921875 218.7119140625 L 288.544921875 214.5322265625 Z  M 294.2578125 215.4111328125 L 302.392578125 215.4111328125 L 302.392578125 216.8759765625 L 295.91796875 216.8759765625 L 295.91796875 221.4072265625 L 301.85546875 221.4072265625 L 301.85546875 222.8720703125 L 295.91796875 222.8720703125 L 295.91796875 227.8232421875 L 302.392578125 227.8232421875 L 302.392578125 229.2880859375 L 294.2578125 229.2880859375 L 294.2578125 215.4111328125 Z  M 300.72265625 210.4501953125 L 301.40625 211.6513671875 L 296.40625 214.5322265625 L 295.80078125 213.4775390625 L 300.72265625 210.4501953125 Z  M 305.224609375 224.6884765625 Q 305.224609375 223.5458984375 305.498046875 222.6328125 Q 305.771484375 221.7197265625 306.2255859375 221.138671875 Q 306.6796875 220.5576171875 307.294921875 220.171875 Q 307.91015625 219.7861328125 308.5546875 219.625 Q 309.19921875 219.4638671875 309.90234375 219.4638671875 Q 311.2890625 219.4638671875 312.607421875 220.0400390625 L 312.216796875 221.2119140625 Q 311.1328125 220.8408203125 310.09765625 220.8408203125 Q 309.58984375 220.8408203125 309.140625 220.93359375 Q 308.69140625 221.0263671875 308.2470703125 221.2705078125 Q 307.802734375 221.5146484375 307.4853515625 221.900390625 Q 307.16796875 222.2861328125 306.97265625 222.9111328125 Q 306.77734375 223.5361328125 306.77734375 224.3466796875 Q 306.77734375 225.2353515625 306.982421875 225.9140625 Q 307.1875 226.5927734375 307.51953125 227.0126953125 Q 307.8515625 227.4326171875 308.3154296875 227.6962890625 Q 308.779296875 227.9599609375 309.2529296875 228.0625 Q 309.7265625 228.1650390625 310.2734375 228.1650390625 Q 311.19140625 228.1650390625 312.109375 227.8427734375 L 312.5 228.9462890625 Q 311.11328125 229.4833984375 309.716796875 229.4833984375 Q 309.072265625 229.4833984375 308.4814453125 229.3564453125 Q 307.890625 229.2294921875 307.2802734375 228.892578125 Q 306.669921875 228.5556640625 306.2255859375 228.0380859375 Q 305.78125 227.5205078125 305.5029296875 226.65625 Q 305.224609375 225.7919921875 305.224609375 224.6884765625 Z  M 319.697265625 219.4541015625 Q 321.69921875 219.4541015625 322.9931640625 220.7333984375 Q 324.287109375 222.0126953125 324.287109375 224.2685546875 Q 324.287109375 226.6611328125 322.9638671875 228.072265625 Q 321.640625 229.4833984375 319.541015625 229.4833984375 Q 317.5390625 229.4833984375 316.26953125 228.16015625 Q 315 226.8369140625 315 224.5712890625 Q 315 222.2373046875 316.2939453125 220.845703125 Q 317.587890625 219.4541015625 319.697265625 219.4541015625 Z  M 319.560546875 220.8212890625 Q 318.359375 220.8212890625 317.4609375 221.7490234375 Q 316.5625 222.6767578125 316.5625 224.2978515625 Q 316.5625 225.9091796875 317.44140625 227.0126953125 Q 318.3203125 228.1162109375 319.716796875 228.1162109375 Q 321.005859375 228.1162109375 321.865234375 227.1396484375 Q 322.724609375 226.1630859375 322.724609375 224.5908203125 Q 322.724609375 223.6923828125 322.4462890625 222.9599609375 Q 322.16796875 222.2275390625 321.7138671875 221.7685546875 Q 321.259765625 221.3095703125 320.703125 221.0654296875 Q 320.146484375 220.8212890625 319.560546875 220.8212890625 Z  M 327.314453125 219.6396484375 L 328.4375 219.6396484375 L 328.7890625 220.4599609375 Q 330.654296875 219.4443359375 332.1875 219.4443359375 Q 332.978515625 219.4443359375 333.564453125 219.693359375 Q 334.150390625 219.9423828125 334.47265625 220.318359375 Q 334.794921875 220.6943359375 334.9853515625 221.265625 Q 335.17578125 221.8369140625 335.2294921875 222.3544921875 Q 335.283203125 222.8720703125 335.283203125 223.5361328125 L 335.283203125 229.2880859375 L 333.681640625 229.2880859375 L 333.681640625 223.4287109375 Q 333.681640625 220.8896484375 331.494140625 220.8896484375 Q 330.361328125 220.8896484375 328.916015625 221.6416015625 L 328.916015625 229.2880859375 L 327.314453125 229.2880859375 L 327.314453125 219.6396484375 Z  M 343.0078125 219.4541015625 Q 345.009765625 219.4541015625 346.3037109375 220.7333984375 Q 347.59765625 222.0126953125 347.59765625 224.2685546875 Q 347.59765625 226.6611328125 346.2744140625 228.072265625 Q 344.951171875 229.4833984375 342.8515625 229.4833984375 Q 340.849609375 229.4833984375 339.580078125 228.16015625 Q 338.310546875 226.8369140625 338.310546875 224.5712890625 Q 338.310546875 222.2373046875 339.6044921875 220.845703125 Q 340.8984375 219.4541015625 343.0078125 219.4541015625 Z  M 342.87109375 220.8212890625 Q 341.669921875 220.8212890625 340.771484375 221.7490234375 Q 339.873046875 222.6767578125 339.873046875 224.2978515625 Q 339.873046875 225.9091796875 340.751953125 227.0126953125 Q 341.630859375 228.1162109375 343.02734375 228.1162109375 Q 344.31640625 228.1162109375 345.17578125 227.1396484375 Q 346.03515625 226.1630859375 346.03515625 224.5908203125 Q 346.03515625 223.6923828125 345.7568359375 222.9599609375 Q 345.478515625 222.2275390625 345.0244140625 221.7685546875 Q 344.5703125 221.3095703125 344.013671875 221.0654296875 Q 343.45703125 220.8212890625 342.87109375 220.8212890625 Z  M 354.482421875 220.9287109375 Q 353.642578125 220.9287109375 352.2265625 221.6708984375 L 352.2265625 229.2880859375 L 350.625 229.2880859375 L 350.625 219.6396484375 L 351.748046875 219.6396484375 L 352.08984375 220.4404296875 Q 353.837890625 219.4541015625 355.1171875 219.4541015625 Q 356.591796875 219.4541015625 357.431640625 220.5283203125 Q 359.345703125 219.4638671875 360.859375 219.4638671875 Q 361.591796875 219.4638671875 362.1484375 219.6640625 Q 362.705078125 219.8642578125 363.0517578125 220.2109375 Q 363.3984375 220.5576171875 363.6181640625 221.080078125 Q 363.837890625 221.6025390625 363.9208984375 222.18359375 Q 364.00390625 222.7646484375 364.00390625 223.4970703125 L 364.00390625 229.2880859375 L 362.40234375 229.2880859375 L 362.40234375 223.3896484375 Q 362.40234375 223.2138671875 362.392578125 223.0625 Q 362.3828125 222.9111328125 362.34375 222.642578125 Q 362.3046875 222.3740234375 362.2265625 222.1640625 Q 362.1484375 221.9541015625 361.9970703125 221.7099609375 Q 361.845703125 221.4658203125 361.630859375 221.3046875 Q 361.416015625 221.1435546875 361.083984375 221.0361328125 Q 360.751953125 220.9287109375 360.341796875 220.9287109375 Q 359.443359375 220.9287109375 357.96875 221.6904296875 Q 358.10546875 222.2666015625 358.10546875 223.5654296875 L 358.10546875 229.2880859375 L 356.50390625 229.2880859375 L 356.50390625 223.3505859375 Q 356.50390625 223.0966796875 356.484375 222.8671875 Q 356.46484375 222.6376953125 356.34765625 222.2568359375 Q 356.23046875 221.8759765625 356.03515625 221.607421875 Q 355.83984375 221.3388671875 355.4345703125 221.1337890625 Q 355.029296875 220.9287109375 354.482421875 220.9287109375 Z  M 367.412109375 215.4111328125 L 369.306640625 215.4111328125 L 369.306640625 217.2568359375 L 367.412109375 217.2568359375 L 367.412109375 215.4111328125 Z  M 367.55859375 219.6396484375 L 369.16015625 219.6396484375 L 369.16015625 229.2880859375 L 367.55859375 229.2880859375 L 367.55859375 219.6396484375 Z  M 376.826171875 219.4541015625 Q 377.529296875 219.4541015625 378.0908203125 219.625 Q 378.65234375 219.7958984375 379.0234375 220.0595703125 Q 379.39453125 220.3232421875 379.6630859375 220.748046875 Q 379.931640625 221.1728515625 380.0732421875 221.568359375 Q 380.21484375 221.9638671875 380.29296875 222.5205078125 Q 380.37109375 223.0771484375 380.390625 223.4873046875 Q 380.41015625 223.8974609375 380.41015625 224.4541015625 L 380.41015625 225.2158203125 L 373.779296875 225.2158203125 Q 373.779296875 225.7431640625 374.0185546875 226.265625 Q 374.2578125 226.7880859375 374.6923828125 227.22265625 Q 375.126953125 227.6572265625 375.8349609375 227.9306640625 Q 376.54296875 228.2041015625 377.40234375 228.2041015625 Q 378.41796875 228.2041015625 379.599609375 227.8525390625 L 379.8828125 228.9462890625 Q 378.310546875 229.4833984375 376.796875 229.4833984375 Q 375.732421875 229.4833984375 374.9072265625 229.2001953125 Q 374.08203125 228.9169921875 373.5791015625 228.462890625 Q 373.076171875 228.0087890625 372.75390625 227.3740234375 Q 372.431640625 226.7392578125 372.3095703125 226.109375 Q 372.1875 225.4794921875 372.1875 224.7763671875 Q 372.1875 223.6923828125 372.451171875 222.7939453125 Q 372.71484375 221.8955078125 373.1640625 221.28515625 Q 373.61328125 220.6748046875 374.2138671875 220.2548828125 Q 374.814453125 219.8349609375 375.4736328125 219.64453125 Q 376.1328125 219.4541015625 376.826171875 219.4541015625 Z  M 376.484375 220.8408203125 Q 375.625 220.8408203125 375.0048828125 221.314453125 Q 374.384765625 221.7880859375 374.1015625 222.4912109375 Q 373.818359375 223.1943359375 373.818359375 224.0048828125 L 378.857421875 224.0048828125 Q 378.857421875 220.8408203125 376.484375 220.8408203125 Z " fill-rule="evenodd" fill="rgb(64,64,64)"/><path d=" M 146 208.1513671875 L 207 208.1513671875 L 207 269.1513671875 L 146 269.1513671875 L 146 208.1513671875 Z " fill="rgb(25,25,25)"/><path d=" M 155.22 231.4313671875 Q 155.22 231.01136718749999 155.56 231.01136718749999 L 166.02 231.01136718749999 Q 166.34 231.01136718749999 166.34 231.3913671875 L 166.34 233.4713671875 Q 166.34 233.6913671875 166.22 233.8213671875 Q 166.1 233.95136718749998 165.86 233.95136718749998 L 159.68 233.95136718749998 Q 159.26 233.95136718749998 159.26 234.3113671875 L 159.26 236.5713671875 Q 159.26 236.7513671875 159.35 236.8513671875 Q 159.44 236.95136718749998 159.58 236.95136718749998 L 163.48 236.95136718749998 Q 163.86 236.95136718749998 163.86 237.3113671875 L 163.86 239.5313671875 Q 163.86 239.8313671875 163.54 239.8313671875 L 159.56 239.8313671875 Q 159.26 239.8313671875 159.26 240.1113671875 L 159.26 242.6513671875 Q 159.26 242.7913671875 159.31 242.8513671875 Q 159.36 242.9113671875 159.48 242.9113671875 L 166.14 242.9113671875 Q 166.34 242.9113671875 166.44 242.9913671875 Q 166.54 243.0713671875 166.54 243.2513671875 L 166.54 245.4513671875 Q 166.54 245.8513671875 166.12 245.8513671875 L 155.7 245.8513671875 Q 155.44 245.8513671875 155.33 245.7413671875 Q 155.22 245.6313671875 155.22 245.3913671875 L 155.22 231.4313671875 Z  M 177.16 234.7513671875 Q 176.66 234.2113671875 176.05 233.9013671875 Q 175.44 233.5913671875 174.38 233.5913671875 Q 173.26 233.5913671875 172.69 233.9613671875 Q 172.12 234.3313671875 172.12 234.8913671875 Q 172.12 235.2713671875 172.44 235.6113671875 Q 172.76 235.95136718749998 173.56 236.1513671875 L 176.8 237.0313671875 Q 178.6 237.51136718749999 179.5 238.6313671875 Q 180.4 239.7513671875 180.4 241.3113671875 Q 180.4 242.7513671875 179.65 243.8213671875 Q 178.9 244.8913671875 177.5 245.4713671875 Q 176.1 246.0513671875 174.22 246.0513671875 Q 172.1 246.0513671875 170.37 245.3413671875 Q 168.64 244.6313671875 167.92 243.4313671875 Q 167.82 243.23136718749998 167.82 243.1313671875 Q 167.82 242.9713671875 168.04 242.8113671875 L 169.84 241.5713671875 Q 170.06 241.4313671875 170.22 241.4313671875 Q 170.42000000000002 241.4313671875 170.54 241.5913671875 Q 171.26 242.51136718749999 171.99 242.8913671875 Q 172.72 243.2713671875 173.92000000000002 243.2713671875 Q 175.14 243.2713671875 175.85 242.9113671875 Q 176.56 242.5513671875 176.56 241.8713671875 Q 176.56 240.95136718749998 175.1 240.5513671875 L 172.06 239.7513671875 Q 170.3 239.2913671875 169.3 238.1213671875 Q 168.3 236.95136718749998 168.3 235.4313671875 Q 168.3 234.1313671875 169.04 233.0813671875 Q 169.78 232.0313671875 171.13 231.42136718749998 Q 172.48 230.8113671875 174.26 230.8113671875 Q 175.98 230.8113671875 177.46 231.3913671875 Q 178.94 231.9713671875 179.66 232.9313671875 Q 179.8 233.17136718749998 179.8 233.2713671875 Q 179.8 233.3713671875 179.66 233.4913671875 L 177.7 234.9113671875 Q 177.62 234.9913671875 177.52 234.9913671875 Q 177.4 234.9913671875 177.16 234.7513671875 Z  M 195.62 245.2913671875 Q 195.7 245.4313671875 195.7 245.5913671875 Q 195.7 245.8513671875 195.38 245.8513671875 L 191.9 245.8513671875 Q 191.42000000000002 245.8513671875 191.26 245.4913671875 L 188.44 239.5913671875 Q 188.36 239.4713671875 188.28 239.4713671875 Q 188.2 239.4713671875 188.02 239.67136718749998 L 186.44 241.6513671875 Q 186.32 241.7913671875 186.32 242.0713671875 L 186.32 245.3313671875 Q 186.32 245.6113671875 186.18 245.73136718749998 Q 186.04000000000002 245.8513671875 185.72 245.8513671875 L 182.76 245.8513671875 Q 182.48000000000002 245.8513671875 182.38 245.7413671875 Q 182.28 245.6313671875 182.28 245.3913671875 L 182.28 231.4313671875 Q 182.28 231.23136718749998 182.37 231.1213671875 Q 182.46 231.01136718749999 182.62 231.01136718749999 L 185.98000000000002 231.01136718749999 Q 186.32 231.01136718749999 186.32 231.3913671875 L 186.32 236.8913671875 Q 186.32 237.1113671875 186.4 237.1113671875 Q 186.48000000000002 237.1113671875 186.6 236.9713671875 L 190.82 231.3913671875 Q 190.98000000000002 231.17136718749998 191.13 231.0913671875 Q 191.28 231.01136718749999 191.6 231.01136718749999 L 194.32 231.01136718749999 Q 194.52 231.01136718749999 194.65 231.0913671875 Q 194.78 231.17136718749998 194.78 231.3113671875 Q 194.78 231.4313671875 194.68 231.5313671875 L 191.14 235.7713671875 Q 191.02 235.95136718749998 191.02 236.0713671875 Q 191.02 236.1913671875 191.1 236.3513671875 L 195.62 245.2913671875 Z " fill-rule="evenodd" fill="rgb(255,255,255)"/></svg>